%FSLAX46Y46*%
%MOMM*%
%ADD11C,0.200000*%
%ADD12C,0.300000*%
%ADD14C,0.500000*%
%ADD15C,0.600000*%
%ADD13C,1.000000*%
%AMPS37*
4,1,20,
0.362500,1.175000,
0.362500,-1.175000,
-0.362500,-1.175000,
-0.362500,-0.875000,
0.087500,-0.875000,
0.087500,-0.725000,
-0.362500,-0.725000,
-0.362500,-0.425000,
0.087500,-0.425000,
0.087500,-0.025000,
-0.362500,-0.025000,
-0.362500,0.275000,
0.087500,0.275000,
0.087500,0.425000,
-0.362500,0.425000,
-0.362500,0.725000,
0.087500,0.725000,
0.087500,0.875000,
-0.362500,0.875000,
-0.362500,1.175000,
0.362500,1.175000,
0*
%
%ADD37PS37*%
%AMPS22*
4,1,4,
-3.200000,-2.900000,
3.200000,-2.900000,
3.200000,2.900000,
-3.200000,2.900000,
-3.200000,-2.900000,
0*
%
%ADD22PS22*%
%AMPS19*
1,1,4.000000,0.000000,0.000000*
%
%ADD19PS19*%
%AMPS18*
1,1,1.600000,0.000000,0.000000*
%
%ADD18PS18*%
%AMPS35*
21,1,0.580000,0.380000,0.000000,0.000000,270.000000*
%
%ADD35PS35*%
%AMPS42*
21,1,1.000000,1.600000,0.000000,0.000000,45.000000*
%
%ADD42PS42*%
%AMPS43*
21,1,1.000000,1.600000,0.000000,0.000000,225.000000*
%
%ADD43PS43*%
%AMPS56*
21,1,2.700000,2.700000,0.000000,0.000000,180.000000*
%
%ADD56PS56*%
%AMPS53*
21,1,0.900000,1.000000,0.000000,0.000000,0.000000*
%
%ADD53PS53*%
%AMPS41*
21,1,1.575000,1.050000,0.000000,0.000000,270.000000*
%
%ADD41PS41*%
%AMPS49*
21,1,3.200000,1.600000,0.000000,0.000000,180.000000*
%
%ADD49PS49*%
%AMPS36*
21,1,0.300000,0.725000,0.000000,0.000000,180.000000*
%
%ADD36PS36*%
%AMPS38*
21,1,0.300000,0.725000,0.000000,0.000000,270.000000*
%
%ADD38PS38*%
%AMPS45*
21,1,0.600000,1.500000,0.000000,0.000000,90.000000*
%
%ADD45PS45*%
%AMPS46*
21,1,0.600000,1.500000,0.000000,0.000000,270.000000*
%
%ADD46PS46*%
%AMPS47*
21,1,2.900000,5.400000,0.000000,0.000000,90.000000*
%
%ADD47PS47*%
%AMPS25*
21,1,2.500000,3.400000,0.000000,0.000000,90.000000*
%
%ADD25PS25*%
%AMPS50*
21,1,0.600000,1.150000,0.000000,0.000000,180.000000*
%
%ADD50PS50*%
%AMPS28*
21,1,0.300000,0.600000,0.000000,0.000000,0.000000*
%
%ADD28PS28*%
%AMPS27*
21,1,0.300000,0.600000,0.000000,0.000000,90.000000*
%
%ADD27PS27*%
%AMPS29*
21,1,0.300000,0.600000,0.000000,0.000000,180.000000*
%
%ADD29PS29*%
%AMPS26*
21,1,0.300000,0.600000,0.000000,0.000000,270.000000*
%
%ADD26PS26*%
%AMPS51*
21,1,2.180000,2.000000,0.000000,0.000000,180.000000*
%
%ADD51PS51*%
%AMPS52*
21,1,0.300000,1.150000,0.000000,0.000000,180.000000*
%
%ADD52PS52*%
%AMPS62*
21,1,1.400000,1.200000,0.000000,0.000000,0.000000*
%
%ADD62PS62*%
%AMPS65*
1,1,0.600000,0.000000,0.000000*
%
%ADD65PS65*%
%AMPS39*
4,1,14,
0.600000,1.137500,
0.300000,1.137500,
0.300000,1.687500,
0.000000,1.687500,
0.000000,1.137500,
-0.150000,1.137500,
-0.150000,1.687500,
-0.450000,1.687500,
-0.450000,1.137500,
-0.600000,1.137500,
-0.600000,-1.037500,
0.145000,-1.037500,
0.145000,-1.687500,
0.600000,-1.687500,
0.600000,1.137500,
0*
%
%ADD39PS39*%
%AMPS40*
4,1,10,
0.525000,0.300000,
0.225000,0.300000,
0.225000,0.850000,
-0.075000,0.850000,
-0.075000,0.300000,
-0.225000,0.300000,
-0.225000,0.850000,
-0.525000,0.850000,
-0.525000,-0.850000,
0.525000,-0.850000,
0.525000,0.300000,
0*
%
%ADD40PS40*%
%AMPS20*
1,1,0.500000,-0.250000,0.550000*
1,1,0.500000,0.250000,-0.550000*
1,1,0.500000,-0.250000,-0.550000*
21,1,1.000000,1.100000,0.000000,0.000000,180.000000*
21,1,0.500000,1.600000,0.000000,0.000000,180.000000*
1,1,0.500000,0.250000,0.550000*
%
%ADD20PS20*%
%AMPS31*
1,1,0.500000,-0.550000,-0.250000*
1,1,0.500000,0.550000,0.250000*
1,1,0.500000,0.550000,-0.250000*
21,1,1.000000,1.100000,0.000000,0.000000,270.000000*
21,1,0.500000,1.600000,0.000000,0.000000,270.000000*
1,1,0.500000,-0.550000,0.250000*
%
%ADD31PS31*%
%AMPS59*
1,1,0.100000,0.500000,0.150000*
1,1,0.100000,-0.500000,-0.150000*
1,1,0.100000,-0.500000,0.150000*
21,1,0.400000,1.000000,0.000000,0.000000,90.000000*
21,1,0.300000,1.100000,0.000000,0.000000,90.000000*
1,1,0.100000,0.500000,-0.150000*
%
%ADD59PS59*%
%AMPS60*
1,1,0.100000,-0.500000,-0.150000*
1,1,0.100000,0.500000,0.150000*
1,1,0.100000,0.500000,-0.150000*
21,1,0.400000,1.000000,0.000000,0.000000,270.000000*
21,1,0.300000,1.100000,0.000000,0.000000,270.000000*
1,1,0.100000,-0.500000,0.150000*
%
%ADD60PS60*%
%AMPS54*
1,1,0.125000,-0.062500,0.350000*
1,1,0.125000,0.062500,-0.350000*
1,1,0.125000,-0.062500,-0.350000*
21,1,0.250000,0.700000,0.000000,0.000000,180.000000*
21,1,0.125000,0.825000,0.000000,0.000000,180.000000*
1,1,0.125000,0.062500,0.350000*
%
%ADD54PS54*%
%AMPS57*
1,1,0.360000,0.220000,-0.195000*
1,1,0.360000,-0.220000,0.195000*
1,1,0.360000,0.220000,0.195000*
21,1,0.800000,0.390000,0.000000,0.000000,0.000000*
21,1,0.440000,0.750000,0.000000,0.000000,0.000000*
1,1,0.360000,-0.220000,-0.195000*
%
%ADD57PS57*%
%AMPS32*
1,1,0.360000,0.195000,0.220000*
1,1,0.360000,-0.195000,-0.220000*
1,1,0.360000,-0.195000,0.220000*
21,1,0.800000,0.390000,0.000000,0.000000,90.000000*
21,1,0.440000,0.750000,0.000000,0.000000,90.000000*
1,1,0.360000,0.195000,-0.220000*
%
%ADD32PS32*%
%AMPS48*
1,1,0.360000,-0.220000,0.195000*
1,1,0.360000,0.220000,-0.195000*
1,1,0.360000,-0.220000,-0.195000*
21,1,0.800000,0.390000,0.000000,0.000000,180.000000*
21,1,0.440000,0.750000,0.000000,0.000000,180.000000*
1,1,0.360000,0.220000,0.195000*
%
%ADD48PS48*%
%AMPS34*
1,1,0.360000,-0.195000,-0.220000*
1,1,0.360000,0.195000,0.220000*
1,1,0.360000,0.195000,-0.220000*
21,1,0.800000,0.390000,0.000000,0.000000,270.000000*
21,1,0.440000,0.750000,0.000000,0.000000,270.000000*
1,1,0.360000,-0.195000,0.220000*
%
%ADD34PS34*%
%AMPS23*
1,1,0.300000,0.175000,-0.675000*
1,1,0.300000,-0.175000,0.675000*
1,1,0.300000,0.175000,0.675000*
21,1,0.650000,1.350000,0.000000,0.000000,0.000000*
21,1,0.350000,1.650000,0.000000,0.000000,0.000000*
1,1,0.300000,-0.175000,-0.675000*
%
%ADD23PS23*%
%AMPS24*
1,1,0.300000,-0.175000,0.675000*
1,1,0.300000,0.175000,-0.675000*
1,1,0.300000,-0.175000,-0.675000*
21,1,0.650000,1.350000,0.000000,0.000000,180.000000*
21,1,0.350000,1.650000,0.000000,0.000000,180.000000*
1,1,0.300000,0.175000,0.675000*
%
%ADD24PS24*%
%AMPS64*
1,1,0.440000,-0.230000,0.630000*
1,1,0.440000,0.230000,-0.630000*
1,1,0.440000,-0.230000,-0.630000*
21,1,0.900000,1.260000,0.000000,0.000000,180.000000*
21,1,0.460000,1.700000,0.000000,0.000000,180.000000*
1,1,0.440000,0.230000,0.630000*
%
%ADD64PS64*%
%AMPS61*
1,1,0.500000,0.375000,0.250000*
1,1,0.500000,-0.375000,-0.250000*
1,1,0.500000,-0.375000,0.250000*
21,1,1.000000,0.750000,0.000000,0.000000,90.000000*
21,1,0.500000,1.250000,0.000000,0.000000,90.000000*
1,1,0.500000,0.375000,-0.250000*
%
%ADD61PS61*%
%AMPS16*
1,1,0.240000,0.130000,-0.330000*
1,1,0.240000,-0.130000,0.330000*
1,1,0.240000,0.130000,0.330000*
21,1,0.500000,0.660000,0.000000,0.000000,0.000000*
21,1,0.260000,0.900000,0.000000,0.000000,0.000000*
1,1,0.240000,-0.130000,-0.330000*
%
%ADD16PS16*%
%AMPS33*
1,1,0.240000,0.330000,0.130000*
1,1,0.240000,-0.330000,-0.130000*
1,1,0.240000,-0.330000,0.130000*
21,1,0.500000,0.660000,0.000000,0.000000,90.000000*
21,1,0.260000,0.900000,0.000000,0.000000,90.000000*
1,1,0.240000,0.330000,-0.130000*
%
%ADD33PS33*%
%AMPS17*
1,1,0.240000,-0.130000,0.330000*
1,1,0.240000,0.130000,-0.330000*
1,1,0.240000,-0.130000,-0.330000*
21,1,0.500000,0.660000,0.000000,0.000000,180.000000*
21,1,0.260000,0.900000,0.000000,0.000000,180.000000*
1,1,0.240000,0.130000,0.330000*
%
%ADD17PS17*%
%AMPS44*
1,1,0.240000,-0.330000,-0.130000*
1,1,0.240000,0.330000,0.130000*
1,1,0.240000,0.330000,-0.130000*
21,1,0.500000,0.660000,0.000000,0.000000,270.000000*
21,1,0.260000,0.900000,0.000000,0.000000,270.000000*
1,1,0.240000,-0.330000,0.130000*
%
%ADD44PS44*%
%AMPS21*
1,1,0.500000,0.850000,-0.350000*
1,1,0.500000,-0.850000,0.350000*
1,1,0.500000,0.850000,0.350000*
21,1,2.200000,0.700000,0.000000,0.000000,0.000000*
21,1,1.700000,1.200000,0.000000,0.000000,0.000000*
1,1,0.500000,-0.850000,-0.350000*
%
%ADD21PS21*%
%AMPS58*
1,1,0.340000,0.180000,-0.330000*
1,1,0.340000,-0.180000,0.330000*
1,1,0.340000,0.180000,0.330000*
21,1,0.700000,0.660000,0.000000,0.000000,0.000000*
21,1,0.360000,1.000000,0.000000,0.000000,0.000000*
1,1,0.340000,-0.180000,-0.330000*
%
%ADD58PS58*%
%AMPS55*
1,1,0.125000,-0.350000,0.062500*
1,1,0.125000,0.350000,-0.062500*
1,1,0.125000,-0.350000,-0.062500*
21,1,0.825000,0.125000,0.000000,0.000000,180.000000*
21,1,0.700000,0.250000,0.000000,0.000000,180.000000*
1,1,0.125000,0.350000,0.062500*
%
%ADD55PS55*%
%AMPS10*
1,1,6.000000,0.000000,0.000000*
%
%ADD10PS10*%
%AMPS30*
21,1,3.300000,3.300000,0.000000,0.000000,90.000000*
%
%ADD30PS30*%
%AMPS63*
1,1,0.787400,0.000000,0.000000*
%
%ADD63PS63*%
G01*
%LPD*%
G36*
X25250000Y67500000D02*
X25250000Y74500000D01*
X17250000Y74500000D01*
X17250000Y67500000D01*
X25250000Y67500000D01*
D02*
G37*
%LPD*%
G36*
X5642576Y62529858D02*
X5642576Y64057969D01*
X5547368Y64108858D01*
X5521779Y64129858D01*
X4342576Y64129858D01*
X4342576Y68039993D01*
X5502592Y69292792D01*
X5502592Y90250000D01*
X-2500000Y90250000D01*
X-2500000Y87999999D01*
X-657424Y86293053D01*
X-657424Y73929859D01*
X2842576Y70429857D01*
X2842576Y65659858D01*
X2972576Y65659858D01*
X2972576Y63339858D01*
X3742576Y63339858D01*
X3742576Y62729858D01*
X4342575Y62729858D01*
X4542577Y62529858D01*
X5642576Y62529858D01*
D02*
G37*
%LPD*%
G36*
X-1657424Y71329858D02*
X-1657424Y86579858D01*
X-3000000Y87774921D01*
X-3000000Y90750000D01*
X6750000Y90750000D01*
X6750000Y93000000D01*
X-5500000Y93000000D01*
X-5500000Y88851206D01*
X-7407424Y87329857D01*
X-7407424Y71329858D01*
X-1657424Y71329858D01*
D02*
G37*
%LPD*%
G36*
X40000000Y74000000D02*
X40000000Y76500000D01*
X35000000Y76500000D01*
X35000000Y74000000D01*
X40000000Y74000000D01*
D02*
G37*
%LPD*%
G36*
X33000000Y93750000D02*
X33000000Y96000000D01*
X41000000Y96000000D01*
X41000000Y93750000D01*
X44750000Y93750000D01*
X44750000Y99740000D01*
X29250000Y99740000D01*
X29250000Y93750000D01*
X33000000Y93750000D01*
D02*
G37*
%LPD*%
G36*
X5642576Y64424858D02*
X5642576Y66479858D01*
X10392576Y71229860D01*
X10392576Y75250000D01*
X12250000Y75250000D01*
X12250000Y77750000D01*
X10392576Y77750000D01*
X10392576Y83000000D01*
X5842576Y83000000D01*
X5842576Y69079859D01*
X4542576Y67823529D01*
X4542576Y64425000D01*
X5642576Y64424858D01*
D02*
G37*
%LPD*%
G36*
X13681509Y75250000D02*
X13700485Y75252815D01*
X13750000Y75255248D01*
X13799515Y75252815D01*
X13818491Y75250000D01*
X15250000Y75250000D01*
X15250000Y81750000D01*
X13000000Y81750000D01*
X13000000Y75250000D01*
X13681509Y75250000D01*
D02*
G37*
%LPD*%
G36*
X92575Y61329858D02*
X1837576Y63074858D01*
X1837576Y63159858D01*
X2767576Y63159858D01*
X2767576Y65454858D01*
X-7657424Y65454858D01*
X-7657424Y61329858D01*
X92575Y61329858D01*
D02*
G37*
G01*
%LPD*%
D11*
X45049998Y65900000D02*
X44999998Y65850000D01*
D11*
X20500000Y80500000D02*
X24500000Y80500000D01*
D11*
X43750000Y74500000D02*
X43750000Y75000000D01*
D11*
X46000000Y69250000D02*
X46000000Y68799999D01*
D11*
X45333787Y66749989D02*
X45499998Y66583778D01*
D12*
X5167576Y61892358D02*
X5167576Y63267358D01*
D11*
X30000000Y73000000D02*
X30250000Y73250000D01*
D11*
X34750000Y91750000D02*
X35250000Y92250000D01*
D11*
X15500020Y58249980D02*
X15500000Y58250000D01*
D11*
X10417576Y63254858D02*
X10842576Y62829858D01*
D11*
X20500000Y63250000D02*
X21000000Y62750000D01*
D11*
X13950000Y83550000D02*
X13950000Y82404998D01*
D11*
X42250000Y74500000D02*
X42250000Y75500000D01*
D11*
X27750000Y72250000D02*
X31500000Y72250000D01*
D11*
X44933776Y67412738D02*
X44933777Y66584299D01*
D11*
X39250000Y71250000D02*
X39500000Y71500000D01*
D11*
X20500000Y58674980D02*
X19325000Y58674980D01*
D11*
X41000000Y75500000D02*
X42250000Y75500000D01*
D11*
X12500000Y83999998D02*
X13500002Y83999998D01*
D11*
X42000002Y60000000D02*
X42000002Y60499998D01*
D11*
X49968750Y99000000D02*
X49968750Y97537500D01*
D11*
X42500000Y85500000D02*
X50050021Y77949979D01*
D11*
X29500000Y75500000D02*
X30250000Y75500000D01*
D11*
X31750002Y56249998D02*
X33250000Y56249998D01*
D11*
X38000000Y70750000D02*
X40250000Y70750000D01*
D11*
X33500000Y52750000D02*
X33263909Y52986091D01*
D11*
X30250000Y65365000D02*
X31152520Y64462480D01*
D11*
X51250000Y78782856D02*
X51250000Y68967144D01*
D11*
X30000000Y83750000D02*
X31000000Y84750000D01*
D11*
X43500000Y70500000D02*
X47000000Y70500000D01*
D11*
X50500000Y65000000D02*
X50750000Y64750000D01*
D11*
X24300000Y59324980D02*
X25825020Y59324980D01*
D11*
X22075020Y60574980D02*
X20500000Y60574980D01*
D11*
X50750000Y54500000D02*
X49000000Y52750000D01*
D11*
X35250000Y92250000D02*
X35250000Y94245000D01*
D11*
X10000000Y93000000D02*
X10000000Y91250000D01*
D11*
X29500000Y75500000D02*
X28750000Y75500000D01*
D11*
X48099998Y62250000D02*
X49250000Y62250000D01*
D12*
X3900000Y62475000D02*
X3900000Y62959934D01*
D13*
X22750000Y85500000D02*
X22750000Y88500000D01*
D11*
X12000000Y73749998D02*
X12500002Y73749998D01*
D11*
X43750000Y60000000D02*
X43999998Y60249998D01*
D13*
X22750000Y88500000D02*
X22750000Y89850000D01*
D11*
X7192576Y66079858D02*
X7742576Y66079858D01*
D11*
X39258345Y59258345D02*
X44300011Y59258345D01*
D11*
X45500000Y87500000D02*
X46250000Y88250000D01*
D11*
X9342576Y60329858D02*
X9342576Y58579858D01*
D11*
X31750000Y79250000D02*
X31212500Y79250000D01*
D11*
X33750000Y57000000D02*
X34000000Y57250000D01*
D11*
X34000000Y82750000D02*
X34000000Y82000000D01*
D11*
X35500000Y79500000D02*
X36000000Y80000000D01*
D11*
X17400000Y59749980D02*
X15999980Y59749980D01*
D11*
X37250000Y70250000D02*
X40500000Y70250000D01*
D11*
X4267576Y60793560D02*
X4010120Y60536104D01*
D11*
X51750000Y62750000D02*
X50750000Y63750000D01*
D11*
X36750000Y94245000D02*
X36750000Y93500000D01*
D11*
X3250000Y57500000D02*
X3750000Y57000000D01*
D11*
X13500000Y65829858D02*
X13500000Y65000000D01*
D11*
X36750000Y93500000D02*
X37000000Y93250000D01*
D11*
X37149980Y90350020D02*
X39117136Y90350020D01*
D11*
X29000000Y82462500D02*
X29000000Y81500000D01*
D11*
X50500000Y65750000D02*
X50500000Y66500000D01*
D11*
X31000000Y74250000D02*
X30750000Y74000000D01*
D11*
X40000000Y65000000D02*
X41750000Y63250000D01*
D11*
X49650010Y70900010D02*
X47549999Y68799999D01*
D14*
X40200000Y94245000D02*
X41535000Y94245000D01*
D11*
X45499998Y66583778D02*
X45499998Y65350000D01*
D11*
X40500000Y79250000D02*
X40500000Y76000000D01*
D12*
X3817576Y61892358D02*
X3817576Y62392576D01*
D11*
X48750000Y53250000D02*
X34250000Y53250000D01*
D11*
X42250000Y68250000D02*
X44000000Y70000000D01*
D11*
X51750000Y54000000D02*
X51750000Y62750000D01*
D11*
X41750000Y62250000D02*
X39000000Y65000000D01*
D11*
X38500000Y81750000D02*
X37750000Y82500000D01*
D11*
X50500000Y65750000D02*
X50500000Y65000000D01*
D11*
X5592576Y59079858D02*
X6342576Y59079858D01*
D11*
X51250000Y62250000D02*
X51250000Y54250000D01*
D11*
X-8000000Y56000000D02*
X-13250000Y61250000D01*
D11*
X2855087Y60817347D02*
X2330065Y60817347D01*
D11*
X24500000Y82750000D02*
X24500000Y83500000D01*
D11*
X12250000Y57500000D02*
X13092576Y58342576D01*
D11*
X50082845Y67799989D02*
X45832845Y67799989D01*
D11*
X13500002Y83999998D02*
X13950000Y83550000D01*
D11*
X38500000Y81000000D02*
X38500000Y81750000D01*
D11*
X24300000Y56849980D02*
X24650000Y56499980D01*
D11*
X47500000Y56250000D02*
X47500000Y55250000D01*
D11*
X32550000Y87200000D02*
X32550000Y90200000D01*
D11*
X34250000Y53250000D02*
X34013778Y53486222D01*
D11*
X44300011Y59258345D02*
X44499998Y59458332D01*
D11*
X48099998Y63250000D02*
X50250000Y63250000D01*
D11*
X11000000Y66750000D02*
X14750000Y66750000D01*
D11*
X42250000Y61500000D02*
X41750000Y61500000D01*
D11*
X44499998Y59458332D02*
X44499998Y60650000D01*
D11*
X41500000Y72000000D02*
X46250000Y72000000D01*
D11*
X50050021Y77949979D02*
X50050021Y70550021D01*
D11*
X34750000Y85500000D02*
X30750000Y85500000D01*
D11*
X40000000Y57750000D02*
X41599998Y57750000D01*
D11*
X45333787Y67247049D02*
X45333787Y66749989D01*
D11*
X37250000Y66500000D02*
X39750000Y66500000D01*
D11*
X-8750000Y94000000D02*
X2500000Y94000000D01*
D11*
X-14750000Y92500000D02*
X-14750000Y60750001D01*
D11*
X21000000Y62750000D02*
X23750000Y62750000D01*
D13*
X22750000Y85500000D02*
X17114998Y79864998D01*
D11*
X26500000Y94000000D02*
X26500000Y96000000D01*
D11*
X26000000Y82000000D02*
X26750000Y82000000D01*
D11*
X14450000Y76500000D02*
X15700000Y75250000D01*
D11*
X50250000Y61250000D02*
X50250000Y54750000D01*
D11*
X32250000Y81750000D02*
X32500000Y82000000D01*
D11*
X45750000Y54750000D02*
X46500000Y55500000D01*
D11*
X26450000Y99000000D02*
X26450000Y97550000D01*
D11*
X38500000Y77900000D02*
X38500000Y81000000D01*
D11*
X48750000Y56250000D02*
X48750000Y55500000D01*
D11*
X41649998Y58558336D02*
X41500000Y58708334D01*
D11*
X19325000Y58674980D02*
X18900000Y58249980D01*
D11*
X25475020Y58674980D02*
X25949997Y58200003D01*
D11*
X43750000Y77000000D02*
X45250000Y77000000D01*
D11*
X28345000Y66000000D02*
X27250000Y66000000D01*
D11*
X26750000Y67750000D02*
X25500000Y66500000D01*
D11*
X49500000Y60500000D02*
X49500000Y59250000D01*
D11*
X7042576Y65929858D02*
X7192576Y66079858D01*
D11*
X15999980Y59749980D02*
X12750000Y56500000D01*
D11*
X31520000Y66635000D02*
X31885000Y67000000D01*
D11*
X34750000Y81000000D02*
X35500000Y81750000D01*
D11*
X37000000Y95250000D02*
X36529978Y95250000D01*
D11*
X37200010Y91082846D02*
X37532825Y90750031D01*
D11*
X3367576Y61329836D02*
X2855087Y60817347D01*
D11*
X47500000Y69500000D02*
X46250000Y69500000D01*
D11*
X52250000Y64750000D02*
X52750000Y64250000D01*
D11*
X42000000Y65250000D02*
X42000000Y65750000D01*
D11*
X26500000Y79250000D02*
X27287500Y79250000D01*
D11*
X4767565Y61354858D02*
X4767565Y61842369D01*
D11*
X12500000Y57000000D02*
X14000000Y58500000D01*
D11*
X37750000Y93500000D02*
X37750000Y94245000D01*
D11*
X29500000Y83000000D02*
X29500000Y82462500D01*
D11*
X34000000Y72750000D02*
X32500000Y72750000D01*
D11*
X43750000Y73000000D02*
X45250000Y73000000D01*
D11*
X13950000Y82404998D02*
X16000000Y82404998D01*
D11*
X46250000Y72000000D02*
X46750000Y72500000D01*
D11*
X23250000Y64000000D02*
X31750000Y55500000D01*
D11*
X36750000Y79250000D02*
X37500000Y79250000D01*
D11*
X39500000Y82000000D02*
X38250000Y83250000D01*
D11*
X31152520Y70652520D02*
X31250000Y70750000D01*
D11*
X16675000Y56499980D02*
X20150000Y56499980D01*
D11*
X28000000Y78537500D02*
X28000000Y75000000D01*
D11*
X30500000Y78537500D02*
X30500000Y78000000D01*
D11*
X52750000Y67250000D02*
X53250000Y66750000D01*
D11*
X40000000Y56250000D02*
X39250000Y56250000D01*
D11*
X36300000Y89550000D02*
X36250000Y89500000D01*
D11*
X45999998Y60650000D02*
X45999998Y59750002D01*
D11*
X4842576Y60079858D02*
X4842576Y61279847D01*
D11*
X36250000Y82750000D02*
X36500000Y82500000D01*
D11*
X49000000Y69500000D02*
X49000000Y69000000D01*
D11*
X14000000Y62250000D02*
X16250000Y64500000D01*
D11*
X-7500000Y56500000D02*
X-12500000Y61500000D01*
D11*
X4500000Y94000000D02*
X5635000Y92865000D01*
D11*
X49750000Y62750000D02*
X50750000Y61750000D01*
D11*
X9790000Y89055000D02*
X11000000Y90265000D01*
D11*
X48099998Y64250000D02*
X51500000Y64250000D01*
D11*
X39000000Y65000000D02*
X39000000Y65750000D01*
D11*
X16000000Y80904998D02*
X16000000Y79979996D01*
D11*
X31500000Y55000000D02*
X36000000Y55000000D01*
D11*
X45049998Y67582842D02*
X45049998Y67528960D01*
D11*
X38000000Y65750000D02*
X37000000Y64750000D01*
D11*
X31750000Y80750000D02*
X31212500Y80750000D01*
D11*
X6842576Y58079858D02*
X6342576Y58579858D01*
D11*
X24300000Y58024980D02*
X24300000Y56849980D01*
D11*
X47499998Y65350000D02*
X47499998Y65999998D01*
D11*
X9250000Y67500000D02*
X10250000Y67500000D01*
D11*
X34250000Y75250000D02*
X34000000Y75000000D01*
D11*
X8750000Y90000000D02*
X7965000Y90000000D01*
D11*
X41500000Y73000000D02*
X40000000Y74500000D01*
D11*
X27250000Y71500000D02*
X26750000Y71000000D01*
D11*
X-14000000Y92000000D02*
X-14000000Y61000000D01*
D11*
X30750000Y50250000D02*
X27275020Y53724980D01*
D11*
X42250000Y77000000D02*
X43750000Y77000000D01*
D11*
X41750000Y60750000D02*
X39000000Y60750000D01*
D11*
X7042576Y65529858D02*
X7042576Y65929858D01*
D11*
X38750000Y71250000D02*
X39250000Y71250000D01*
D11*
X4767565Y61842369D02*
X4717576Y61892358D01*
D11*
X23750000Y65000000D02*
X15500000Y65000000D01*
D11*
X30000000Y78537500D02*
X30000000Y77250000D01*
D11*
X31152520Y62597480D02*
X32250000Y61500000D01*
D11*
X14300000Y68719998D02*
X16519998Y66500000D01*
D11*
X35000000Y61500000D02*
X35500000Y62000000D01*
D11*
X37000000Y89550000D02*
X36300000Y89550000D01*
D11*
X44250000Y99000000D02*
X44000000Y99250000D01*
D11*
X16000000Y82404998D02*
X17845002Y82404998D01*
D11*
X35500000Y77900000D02*
X35500000Y79500000D01*
D11*
X43750000Y67500000D02*
X36750000Y67500000D01*
D11*
X48750000Y57750000D02*
X47500000Y57750000D01*
D11*
X39500000Y71500000D02*
X39500000Y72600000D01*
D11*
X45999998Y65350000D02*
X45999998Y66932309D01*
D11*
X51250000Y68967144D02*
X50082845Y67799989D01*
D11*
X18900000Y61250000D02*
X18900000Y63400000D01*
D11*
X49500000Y55000000D02*
X49500000Y59250000D01*
D11*
X-12500000Y61500000D02*
X-12500000Y91500000D01*
D11*
X14300000Y76350000D02*
X14450000Y76500000D01*
D11*
X45749998Y63000000D02*
X45749998Y63000001D01*
D11*
X35500000Y72600000D02*
X34150000Y72600000D01*
D11*
X35500000Y86000000D02*
X35250000Y86250000D01*
D11*
X-12500000Y91500000D02*
X-9250000Y94750000D01*
D11*
X37250000Y94245000D02*
X37250000Y95000000D01*
D11*
X38000000Y59750000D02*
X39000000Y60750000D01*
D11*
X50250000Y63250000D02*
X51250000Y62250000D01*
D11*
X38500000Y72600000D02*
X38500000Y71500000D01*
D11*
X38750000Y56750000D02*
X38750000Y58750000D01*
D11*
X30500000Y82462500D02*
X30500000Y83250000D01*
D11*
X48000000Y66500000D02*
X50500000Y66500000D01*
D11*
X46999998Y65350000D02*
X46999998Y66434288D01*
D11*
X45250000Y74500000D02*
X45250000Y75500000D01*
D11*
X37000000Y84750000D02*
X42500000Y84750000D01*
D11*
X27500000Y85000000D02*
X29500000Y83000000D01*
D11*
X33500000Y87800000D02*
X33500000Y89000000D01*
D11*
X45450009Y67417153D02*
X45450009Y67363271D01*
D11*
X48750000Y76815714D02*
X43065714Y82500000D01*
D11*
X14300000Y68719998D02*
X12030064Y68719998D01*
D11*
X27675020Y54324980D02*
X30250000Y51750000D01*
D11*
X38000000Y57000000D02*
X38000000Y59750000D01*
D11*
X41000000Y65000000D02*
X41000000Y65750000D01*
D11*
X31212500Y81250000D02*
X31750000Y81250000D01*
D11*
X47750000Y72000000D02*
X47750000Y75500000D01*
D11*
X46500000Y55500000D02*
X46500000Y58000000D01*
D11*
X25000000Y75250000D02*
X27250000Y73000000D01*
D11*
X41649998Y56200000D02*
X40050000Y56200000D01*
D11*
X4267576Y61892358D02*
X4267576Y60793560D01*
D11*
X26000000Y80500000D02*
X26250000Y80500000D01*
D11*
X36500000Y71000000D02*
X37250000Y70250000D01*
D11*
X4092576Y57907424D02*
X4500000Y57500000D01*
D11*
X49187006Y88250000D02*
X50106244Y87330762D01*
D11*
X45049998Y66468078D02*
X45049998Y65900000D01*
D11*
X30750000Y74000000D02*
X30250000Y74000000D01*
D11*
X15920142Y65829858D02*
X16250000Y65500000D01*
D11*
X46500000Y58000000D02*
X45499998Y59000002D01*
D11*
X47500000Y57750000D02*
X47500000Y58250000D01*
D11*
X41599998Y57750000D02*
X41649998Y57800000D01*
D11*
X20000000Y63250000D02*
X20500000Y63250000D01*
D11*
X7250000Y94750000D02*
X8405000Y93595000D01*
D11*
X37000000Y64750000D02*
X37000000Y63000000D01*
D11*
X26000000Y54324980D02*
X27675020Y54324980D01*
D11*
X49500000Y51750000D02*
X51750000Y54000000D01*
D11*
X31250000Y70750000D02*
X31250000Y71000000D01*
D11*
X42500000Y84000000D02*
X49250000Y77250000D01*
D11*
X50750000Y78717156D02*
X50750000Y69032844D01*
D11*
X28980000Y66635000D02*
X28345000Y66000000D01*
D11*
X31750000Y55500000D02*
X35000000Y55500000D01*
D11*
X48250000Y76750000D02*
X45000000Y80000000D01*
D11*
X11550000Y76500000D02*
X11550000Y75200000D01*
D11*
X43750000Y75000000D02*
X43750000Y75500000D01*
D11*
X31212500Y79750000D02*
X31750000Y79750000D01*
D11*
X4500000Y57500000D02*
X12250000Y57500000D01*
D11*
X36750000Y67500000D02*
X34250000Y65000000D01*
D11*
X34013909Y56263909D02*
X34013909Y56736091D01*
D11*
X10250000Y67500000D02*
X11000000Y66750000D01*
D11*
X36750000Y69750000D02*
X40750000Y69750000D01*
D11*
X32000000Y81000000D02*
X31750000Y80750000D01*
D11*
X43065714Y82500000D02*
X43000000Y82500000D01*
D11*
X36250000Y82250000D02*
X36500000Y82500000D01*
D11*
X12342576Y64329858D02*
X12342576Y62829858D01*
D11*
X10000000Y91250000D02*
X8750000Y90000000D01*
D11*
X6280076Y63254858D02*
X10417576Y63254858D01*
D11*
X34000000Y57250000D02*
X34000000Y58000000D01*
D11*
X24500000Y85000000D02*
X23750000Y85000000D01*
D11*
X34750000Y67250000D02*
X34750000Y69000000D01*
D11*
X14750000Y66750000D02*
X15000000Y66500000D01*
D11*
X5635000Y92865000D02*
X5635000Y91895000D01*
D11*
X29000000Y77250000D02*
X29000000Y78537500D01*
D12*
X5745142Y64404858D02*
X5400000Y64750000D01*
D11*
X33500000Y86250000D02*
X32550000Y87200000D01*
D11*
X46250000Y74500000D02*
X45250000Y74500000D01*
D11*
X32000000Y71750000D02*
X33750000Y71750000D01*
D11*
X52000000Y80062994D02*
X47419238Y84643756D01*
D11*
X36000000Y80000000D02*
X37500000Y80000000D01*
D11*
X2330065Y60817347D02*
X1842576Y60329858D01*
D11*
X8250000Y83999998D02*
X8250000Y82750000D01*
D11*
X37000000Y93250000D02*
X37500000Y93250000D01*
D11*
X26250000Y74750000D02*
X26250000Y79000000D01*
D13*
X15885002Y79864998D02*
X13950000Y79864998D01*
D11*
X34450000Y90200000D02*
X34450000Y90950000D01*
D11*
X11000000Y93250000D02*
X7000000Y97250000D01*
D11*
X37532825Y90750031D02*
X39282825Y90750031D01*
D11*
X26250000Y80500000D02*
X26500000Y80250000D01*
D11*
X36500000Y77900000D02*
X36500000Y79000000D01*
D11*
X46250000Y77000000D02*
X45250000Y77000000D01*
D11*
X6842576Y61829858D02*
X6817576Y61804858D01*
D11*
X-13250000Y61250000D02*
X-13250000Y91750000D01*
D11*
X44499998Y66750002D02*
X43750000Y67500000D01*
D11*
X12970002Y73279998D02*
X14300000Y73279998D01*
D11*
X34013778Y53486222D02*
X34013778Y53749740D01*
D11*
X35250000Y75250000D02*
X34250000Y75250000D01*
D11*
X5192596Y60979838D02*
X5592576Y60579858D01*
D11*
X48000000Y59824998D02*
X48000000Y59250000D01*
D11*
X48750000Y61250000D02*
X49500000Y60500000D01*
D11*
X42500000Y84750000D02*
X49650010Y77599990D01*
D11*
X1842576Y60329858D02*
X1842576Y59829858D01*
D11*
X36250000Y94970022D02*
X36250000Y94245000D01*
D11*
X42000000Y71000000D02*
X46750000Y71000000D01*
D11*
X34450000Y90200000D02*
X34450000Y87800000D01*
D11*
X24250000Y88500000D02*
X25000000Y88500000D01*
D11*
X27275020Y53724980D02*
X26750000Y53724980D01*
D11*
X41649998Y57800000D02*
X41649998Y58558336D01*
D11*
X6592576Y60329858D02*
X7842576Y60329858D01*
D11*
X32000000Y79500000D02*
X31750000Y79250000D01*
D11*
X12500002Y73749998D02*
X12970002Y73279998D01*
D11*
X31750000Y79750000D02*
X32000000Y79500000D01*
D11*
X34000000Y74250000D02*
X34000000Y75000000D01*
D11*
X39500000Y77900000D02*
X39500000Y81000000D01*
D11*
X24050000Y99000000D02*
X23250000Y99000000D01*
D11*
X21650000Y56499980D02*
X22400020Y56499980D01*
D11*
X34500000Y67000000D02*
X34750000Y67250000D01*
D11*
X33000000Y91750000D02*
X34750000Y91750000D01*
D11*
X22250000Y60400000D02*
X22075020Y60574980D01*
D11*
X48750000Y64750000D02*
X49000000Y65000000D01*
D11*
X47549999Y68799999D02*
X46800003Y68799999D01*
D11*
X36250000Y86000000D02*
X36250000Y82750000D01*
D11*
X14300000Y73279998D02*
X14300000Y76350000D01*
D11*
X27500000Y83500000D02*
X28000000Y83000000D01*
D11*
X32000000Y79500000D02*
X34750000Y79500000D01*
D11*
X47000000Y70500000D02*
X48250000Y71750000D01*
D11*
X28750000Y77000000D02*
X29000000Y77250000D01*
D11*
X12092576Y60329858D02*
X12342576Y60579858D01*
D11*
X6817576Y61804858D02*
X6592576Y61579858D01*
D11*
X35500000Y72600000D02*
X35500000Y71000000D01*
D11*
X39250000Y56250000D02*
X38750000Y56750000D01*
D11*
X34150000Y72600000D02*
X34000000Y72750000D01*
D11*
X29250000Y81250000D02*
X29250000Y80500000D01*
D11*
X49250000Y71250000D02*
X47500000Y69500000D01*
D11*
X54000000Y90750000D02*
X54000000Y63750000D01*
D11*
X32550000Y90200000D02*
X32550000Y91300000D01*
D11*
X39282825Y90750031D02*
X51250000Y78782856D01*
D11*
X42000000Y69000000D02*
X43500000Y70500000D01*
D11*
X38250000Y92995004D02*
X38250000Y94245000D01*
D11*
X3367576Y61892358D02*
X3367576Y61329836D01*
D11*
X17400000Y58249980D02*
X15500020Y58249980D01*
D11*
X12000000Y71500000D02*
X12000000Y72249998D01*
D11*
X37250000Y95000000D02*
X37000000Y95250000D01*
D11*
X42000002Y60000000D02*
X43750000Y60000000D01*
D11*
X32750000Y70250000D02*
X31500000Y71500000D01*
D11*
X38750000Y58750000D02*
X39258345Y59258345D01*
D11*
X50750000Y61750000D02*
X50750000Y54500000D01*
D11*
X53250000Y66750000D02*
X53250000Y63000000D01*
D11*
X53250000Y63000000D02*
X52750000Y62500000D01*
D11*
X32250000Y61500000D02*
X35000000Y61500000D01*
D11*
X11550000Y75200000D02*
X12000000Y74750000D01*
D11*
X46750000Y71000000D02*
X47750000Y72000000D01*
D11*
X47499998Y65999998D02*
X48000000Y66500000D01*
D11*
X52000000Y65750000D02*
X52000000Y66500000D01*
D11*
X19325000Y59324980D02*
X18900000Y59749980D01*
D11*
X26000000Y83500000D02*
X27500000Y83500000D01*
D11*
X-8500000Y55500000D02*
X15675020Y55500000D01*
D11*
X12842576Y62829858D02*
X12342576Y62829858D01*
D11*
X40050000Y56200000D02*
X40000000Y56250000D01*
D11*
X7500000Y95500000D02*
X10000000Y93000000D01*
D11*
X12000000Y71500000D02*
X12000000Y70750062D01*
D11*
X-10000000Y97250000D02*
X-14750000Y92500000D01*
D11*
X47568750Y99000000D02*
X44250000Y99000000D01*
D11*
X5167576Y61449850D02*
X5167576Y61892358D01*
D11*
X45500000Y57708334D02*
X43941664Y57708334D01*
D11*
X24300000Y58024980D02*
X23125020Y58024980D01*
D11*
X3750000Y57000000D02*
X12500000Y57000000D01*
D11*
X43999998Y60249998D02*
X43999998Y60650000D01*
D11*
X31212500Y81750000D02*
X32250000Y81750000D01*
D11*
X37000000Y57000000D02*
X39250000Y54750000D01*
D11*
X42250000Y73000000D02*
X43750000Y73000000D01*
D14*
X32465000Y94245000D02*
X31890000Y94820000D01*
D11*
X34000000Y59500000D02*
X34000000Y60250000D01*
D11*
X9242576Y66079858D02*
X9242576Y64579858D01*
D11*
X34450000Y87800000D02*
X36250000Y86000000D01*
D11*
X49968750Y97537500D02*
X50006250Y97500000D01*
D11*
X31000000Y77500000D02*
X31000000Y74250000D01*
D11*
X49650010Y77599990D02*
X49650010Y70900010D01*
D11*
X45500000Y56208334D02*
X45500000Y55500000D01*
D11*
X38000000Y68250000D02*
X36250000Y68250000D01*
D11*
X41750000Y63250000D02*
X43399998Y63250000D01*
D11*
X9342576Y60329858D02*
X12092576Y60329858D01*
D11*
X40250000Y61500000D02*
X39500000Y61500000D01*
D11*
X45499998Y59000002D02*
X45499998Y60650000D01*
D11*
X35500000Y81750000D02*
X35500000Y83250000D01*
D12*
X6280076Y64404858D02*
X5745142Y64404858D01*
D11*
X20500000Y58024980D02*
X20150000Y57674980D01*
D11*
X36250000Y65500000D02*
X37250000Y66500000D01*
D11*
X42500000Y64750000D02*
X42000000Y65250000D01*
D11*
X26500000Y89750000D02*
X30750000Y85500000D01*
D11*
X52750000Y53500000D02*
X49500000Y50250000D01*
D11*
X48250000Y53750000D02*
X49500000Y55000000D01*
D11*
X49500000Y50250000D02*
X30750000Y50250000D01*
D11*
X17845002Y82404998D02*
X18000000Y82250000D01*
D11*
X32550000Y91300000D02*
X33000000Y91750000D01*
D11*
X24400000Y60750000D02*
X24400000Y60074980D01*
D11*
X45500000Y56208334D02*
X43858332Y56208334D01*
D11*
X42500000Y61750000D02*
X42250000Y61500000D01*
D11*
X-9750000Y96250000D02*
X-14000000Y92000000D01*
D11*
X36250000Y81000000D02*
X36250000Y82250000D01*
D11*
X43941664Y57708334D02*
X43849998Y57800000D01*
D11*
X26750000Y82000000D02*
X27000000Y81750000D01*
D11*
X34250000Y65000000D02*
X31885000Y65000000D01*
D11*
X15000000Y65829858D02*
X15920142Y65829858D01*
D11*
X-9500000Y95500000D02*
X7500000Y95500000D01*
D11*
X5617576Y61892358D02*
X5617576Y61304858D01*
D11*
X6817576Y62354858D02*
X6817576Y61804858D01*
D14*
X41535000Y94245000D02*
X42110000Y94820000D01*
D11*
X5167576Y61449850D02*
X5192596Y61424830D01*
D11*
X49917156Y68200000D02*
X45667155Y68199999D01*
D11*
X6280076Y62354858D02*
X6817576Y62354858D01*
D11*
X-11750000Y61672433D02*
X-11750000Y91000000D01*
D11*
X13500000Y65829858D02*
X12342576Y65829858D01*
D11*
X19500000Y64000000D02*
X23250000Y64000000D01*
D11*
X6342576Y58579858D02*
X6342576Y59079858D01*
D15*
X39400000Y94245000D02*
X39400000Y92850000D01*
D11*
X-14000000Y61000000D02*
X-8500000Y55500000D01*
D11*
X3250000Y58750000D02*
X3250000Y57500000D01*
D11*
X31152520Y64462480D02*
X31152520Y62597480D01*
D11*
X45000000Y80000000D02*
X40500000Y80000000D01*
D11*
X30250000Y66635000D02*
X31152520Y67537520D01*
D11*
X49250000Y62250000D02*
X50250000Y61250000D01*
D11*
X3342576Y60739122D02*
X3817576Y61214122D01*
D11*
X3817576Y61214122D02*
X3817576Y61892358D01*
D11*
X36050000Y91950000D02*
X36050000Y91450000D01*
D11*
X47250000Y70000000D02*
X48750000Y71500000D01*
D11*
X20500000Y59974980D02*
X20500000Y60574980D01*
D11*
X36250000Y56750000D02*
X36250000Y65500000D01*
D11*
X27000000Y81750000D02*
X27287500Y81750000D01*
D11*
X37750000Y82500000D02*
X36500000Y82500000D01*
D11*
X36500000Y72600000D02*
X36500000Y71000000D01*
D11*
X24650000Y55000000D02*
X28250000Y55000000D01*
D11*
X5192596Y61424830D02*
X5192596Y60979838D01*
D11*
X26450000Y97550000D02*
X26500000Y97500000D01*
D11*
X16250000Y77500000D02*
X16250000Y76000000D01*
D11*
X40000000Y66250000D02*
X40000000Y65000000D01*
D11*
X15500000Y58250000D02*
X13250000Y56000000D01*
D11*
X5592576Y59079858D02*
X5092576Y58579858D01*
D15*
X34600000Y94245000D02*
X34600000Y92850000D01*
D11*
X37950000Y91950000D02*
X37950000Y92800000D01*
D11*
X39250000Y54750000D02*
X45750000Y54750000D01*
D11*
X34750000Y69000000D02*
X33500000Y70250000D01*
D11*
X41750000Y71500000D02*
X46500000Y71500000D01*
D11*
X47499998Y60325000D02*
X48000000Y59824998D01*
D11*
X37500000Y71250000D02*
X38000000Y70750000D01*
D11*
X26750000Y58400000D02*
X26750000Y55600000D01*
D11*
X37000000Y81000000D02*
X37000000Y81750000D01*
D11*
X13092576Y58342576D02*
X13092576Y62579858D01*
D11*
X18900000Y63400000D02*
X19500000Y64000000D01*
D11*
X7750000Y67500000D02*
X6500000Y67500000D01*
D11*
X24400000Y60074980D02*
X24300000Y59974980D01*
D11*
X46250000Y69500000D02*
X46000000Y69250000D01*
D11*
X20500000Y59324980D02*
X19325000Y59324980D01*
D11*
X9744177Y62804858D02*
X10023165Y62525870D01*
D11*
X26000000Y85000000D02*
X27500000Y85000000D01*
D11*
X20000000Y61074980D02*
X20500000Y60574980D01*
D11*
X250000Y96250000D02*
X-9750000Y96250000D01*
D11*
X25500000Y66500000D02*
X20000000Y66500000D01*
D11*
X41750000Y61500000D02*
X41750000Y62250000D01*
D11*
X7842576Y59079858D02*
X7842576Y60329858D01*
D11*
X50050021Y70550021D02*
X49000000Y69500000D01*
D11*
X842576Y60579858D02*
X-10657424Y60579858D01*
D11*
X46250000Y88250000D02*
X49187006Y88250000D01*
D11*
X11000000Y90265000D02*
X11000000Y93250000D01*
D11*
X31000000Y84750000D02*
X34750000Y84750000D01*
D11*
X35250000Y86250000D02*
X33500000Y86250000D01*
D11*
X34450000Y90950000D02*
X34500000Y91000000D01*
D11*
X15675020Y55500000D02*
X16675000Y56499980D01*
D11*
X46999998Y66434288D02*
X47815710Y67250000D01*
D11*
X50006250Y94743750D02*
X54000000Y90750000D01*
D11*
X17400000Y59749980D02*
X17400000Y61250000D01*
D11*
X50750000Y64750000D02*
X52250000Y64750000D01*
D11*
X6280076Y62804858D02*
X9744177Y62804858D01*
D11*
X52750000Y62500000D02*
X52750000Y53500000D01*
D11*
X25825020Y59324980D02*
X26750000Y58400000D01*
D11*
X38750000Y54250000D02*
X46500000Y54250000D01*
D11*
X47419238Y84643756D02*
X42893756Y89169238D01*
D11*
X28000000Y83000000D02*
X28000000Y82462500D01*
D11*
X27287500Y80250000D02*
X26500000Y80250000D01*
D11*
X23150000Y56499980D02*
X22400020Y56499980D01*
D11*
X43399998Y61750000D02*
X42500000Y61750000D01*
D11*
X9342576Y58579858D02*
X8842576Y58079858D01*
D11*
X44999998Y58208336D02*
X45500000Y57708334D01*
D11*
X48099998Y64750000D02*
X48750000Y64750000D01*
D11*
X15000000Y66500000D02*
X15000000Y65829858D01*
D11*
X33750000Y71750000D02*
X36500000Y69000000D01*
D11*
X46250000Y91187006D02*
X45580762Y91856244D01*
D11*
X8405000Y93595000D02*
X8405000Y91895000D01*
D12*
X3817576Y62392576D02*
X3900000Y62475000D01*
D11*
X13092576Y62579858D02*
X12842576Y62829858D01*
D11*
X27250000Y73000000D02*
X30000000Y73000000D01*
D11*
X33263909Y52986091D02*
X33263909Y53763909D01*
D11*
X16250000Y65500000D02*
X24000000Y65500000D01*
D11*
X10217576Y63704858D02*
X10842576Y64329858D01*
D11*
X48250000Y71750000D02*
X48250000Y76750000D01*
D11*
X35500000Y65500000D02*
X37000000Y67000000D01*
D11*
X25949997Y58200003D02*
X25949997Y55600000D01*
D11*
X43999998Y66250003D02*
X43999998Y65350000D01*
D11*
X37200010Y91200010D02*
X37200010Y91082846D01*
D11*
X-10657424Y60579858D02*
X-11750000Y61672433D01*
D11*
X10842576Y62829858D02*
X10842576Y61329858D01*
D11*
X49250000Y77250000D02*
X49250000Y71250000D01*
D11*
X47250000Y72250000D02*
X47250000Y74500000D01*
D11*
X48750000Y71500000D02*
X48750000Y76815714D01*
D11*
X46250000Y88250000D02*
X46250000Y91187006D01*
D11*
X31885000Y65000000D02*
X31520000Y65365000D01*
D11*
X45450009Y67363271D02*
X45333787Y67247049D01*
D11*
X39000000Y68250000D02*
X42250000Y68250000D01*
D11*
X6817576Y65304858D02*
X7042576Y65529858D01*
D11*
X36050000Y92800000D02*
X36050000Y91950000D01*
D11*
X35500000Y83250000D02*
X35500000Y86000000D01*
D11*
X20000000Y63250000D02*
X20000000Y61074980D01*
D11*
X5092576Y58579858D02*
X4842576Y58579858D01*
D11*
X34013909Y56736091D02*
X33750000Y57000000D01*
D11*
X45749998Y63000001D02*
X44500000Y64250000D01*
D11*
X42250000Y73000000D02*
X41500000Y73000000D01*
D11*
X37000000Y56000000D02*
X38750000Y54250000D01*
D11*
X37500000Y72600000D02*
X37500000Y71250000D01*
D11*
X30250000Y73250000D02*
X30250000Y74000000D01*
D11*
X36250000Y93000000D02*
X36050000Y92800000D01*
D11*
X44933777Y66584299D02*
X45049998Y66468078D01*
D11*
X6280076Y64854858D02*
X6817576Y64854858D01*
D11*
X31750000Y57750000D02*
X32500000Y57750000D01*
D11*
X52750000Y64250000D02*
X52750000Y63250000D01*
D11*
X31750000Y81250000D02*
X32000000Y81000000D01*
D11*
X31750000Y57000000D02*
X23750000Y65000000D01*
D11*
X35250000Y53750000D02*
X48250000Y53750000D01*
D15*
X34600000Y92850000D02*
X34449980Y92850000D01*
D11*
X32500000Y52750000D02*
X32500000Y53750000D01*
D11*
X35500000Y62000000D02*
X35500000Y65500000D01*
D11*
X28750000Y54500000D02*
X34500000Y54500000D01*
D11*
X44999998Y65850000D02*
X44999998Y65350000D01*
D11*
X30000000Y82462500D02*
X30000000Y83750000D01*
D11*
X12342576Y61329858D02*
X12342576Y60579858D01*
D11*
X16000000Y79979996D02*
X15885002Y79864998D01*
D11*
X42000002Y60499998D02*
X41750000Y60750000D01*
D11*
X36250000Y94245000D02*
X36250000Y93000000D01*
D11*
X50750000Y63750000D02*
X48099998Y63750000D01*
D11*
X23750000Y62750000D02*
X31500000Y55000000D01*
D11*
X48099998Y61250000D02*
X48750000Y61250000D01*
D11*
X46499998Y65350000D02*
X46499998Y66782818D01*
D11*
X7000000Y97250000D02*
X-10000000Y97250000D01*
D11*
X39117136Y90350020D02*
X50750000Y78717156D01*
D11*
X38250000Y63000000D02*
X37000000Y63000000D01*
D11*
X7965000Y90000000D02*
X7020000Y89055000D01*
D11*
X46499998Y66782818D02*
X46733590Y67016410D01*
D11*
X-11750000Y91000000D02*
X-8750000Y94000000D01*
D11*
X7842576Y61829858D02*
X6842576Y61829858D01*
D11*
X4842576Y61279847D02*
X4767565Y61354858D01*
D11*
X31152520Y67537520D02*
X31152520Y70652520D01*
D11*
X31500000Y72250000D02*
X32000000Y71750000D01*
D11*
X37000000Y84000000D02*
X42500000Y84000000D01*
D11*
X49250000Y52250000D02*
X33000000Y52250000D01*
D11*
X16519998Y66500000D02*
X20000000Y66500000D01*
D11*
X39500000Y61500000D02*
X38250000Y61500000D01*
D11*
X33500000Y71000000D02*
X33250000Y71000000D01*
D11*
X3342576Y59829858D02*
X3342576Y60739122D01*
D11*
X31885000Y67000000D02*
X34500000Y67000000D01*
D13*
X22750000Y92850000D02*
X34449980Y92850000D01*
D11*
X51500000Y64250000D02*
X52000000Y63750000D01*
D11*
X-9250000Y94750000D02*
X7250000Y94750000D01*
D11*
X12750000Y56500000D02*
X-7500000Y56500000D01*
D11*
X29500000Y78537500D02*
X29500000Y75500000D01*
D11*
X40000000Y74500000D02*
X39750000Y74500000D01*
D11*
X41000000Y81000000D02*
X41000000Y81750000D01*
D11*
X45999998Y66932309D02*
X45933788Y66998519D01*
D11*
X33500000Y70250000D02*
X32750000Y70250000D01*
D11*
X-13250000Y91750000D02*
X-9500000Y95500000D01*
D11*
X35000000Y55500000D02*
X36250000Y56750000D01*
D11*
X23500000Y64500000D02*
X31750002Y56249998D01*
D11*
X45049998Y67528960D02*
X44933776Y67412738D01*
D11*
X39000000Y91500000D02*
X39000000Y92245004D01*
D11*
X15700000Y75250000D02*
X25000000Y75250000D01*
D11*
X50250000Y54750000D02*
X48750000Y53250000D01*
D11*
X44999998Y60650000D02*
X44999998Y58208336D01*
D11*
X37950000Y92800000D02*
X37500000Y93250000D01*
D11*
X50006250Y96000000D02*
X50006250Y94743750D01*
D11*
X10842576Y65829858D02*
X10842576Y64329858D01*
D11*
X30500000Y78000000D02*
X31000000Y77500000D01*
D11*
X6817576Y64854858D02*
X7092576Y64579858D01*
D11*
X30250000Y51750000D02*
X49500000Y51750000D01*
D11*
X44000000Y70000000D02*
X47250000Y70000000D01*
D11*
X31250000Y84000000D02*
X34750000Y84000000D01*
D11*
X31000000Y74250000D02*
X32500000Y74250000D01*
D11*
X16250000Y64500000D02*
X23500000Y64500000D01*
D11*
X47815710Y67250000D02*
X52750000Y67250000D01*
D11*
X37000000Y63000000D02*
X37000000Y57000000D01*
D11*
X22250000Y58900000D02*
X22250000Y60400000D01*
D11*
X36500000Y79000000D02*
X36750000Y79250000D01*
D11*
X24000000Y65500000D02*
X31750000Y57750000D01*
D11*
X37950000Y91950000D02*
X37200010Y91200010D01*
D11*
X9342576Y61829858D02*
X7842576Y61829858D01*
D11*
X51250000Y68000000D02*
X52000000Y68750000D01*
D11*
X26500000Y89750000D02*
X26500000Y91500000D01*
D13*
X17114998Y79864998D02*
X15885002Y79864998D01*
D11*
X12000000Y74750000D02*
X13750000Y74750000D01*
D11*
X40500002Y60000000D02*
X39500000Y60000000D01*
D11*
X46750000Y74000000D02*
X46250000Y74500000D01*
D11*
X38250000Y83250000D02*
X37750000Y83250000D01*
D11*
X40500000Y76000000D02*
X41000000Y75500000D01*
D11*
X40500000Y70250000D02*
X41750000Y71500000D01*
D11*
X15500000Y65000000D02*
X13500000Y63000000D01*
D11*
X52250000Y53750000D02*
X52250000Y62750000D01*
D11*
X46750000Y72500000D02*
X46750000Y74000000D01*
D11*
X36050000Y91450000D02*
X37149980Y90350020D01*
D11*
X52250000Y62750000D02*
X52750000Y63250000D01*
D11*
X36500000Y69000000D02*
X41000000Y69000000D01*
D11*
X24300000Y58674980D02*
X25475020Y58674980D01*
D11*
X27750000Y74750000D02*
X28000000Y75000000D01*
D11*
X35500000Y71000000D02*
X36750000Y69750000D01*
D11*
X12030064Y68719998D02*
X12000008Y68750054D01*
D11*
X39500000Y81000000D02*
X39500000Y82000000D01*
D11*
X4842576Y60079858D02*
X4092576Y59329858D01*
D11*
X43858332Y56208334D02*
X43849998Y56200000D01*
D11*
X31500000Y71500000D02*
X27250000Y71500000D01*
D11*
X23750000Y85000000D02*
X16250000Y77500000D01*
D11*
X29000000Y81500000D02*
X29250000Y81250000D01*
D11*
X42250000Y63750000D02*
X41000000Y65000000D01*
D11*
X-8999999Y55000000D02*
X23150000Y55000000D01*
D11*
X50750000Y69032844D02*
X49917156Y68200000D01*
D11*
X45832845Y67799989D02*
X45450009Y67417153D01*
D11*
X47500000Y51000000D02*
X49500000Y51000000D01*
D11*
X4092576Y59329858D02*
X4092576Y57907424D01*
D11*
X26750000Y71000000D02*
X26750000Y67750000D01*
D11*
X39750000Y66500000D02*
X40000000Y66250000D01*
D11*
X5617576Y61304858D02*
X6592576Y60329858D01*
D11*
X47250000Y74500000D02*
X46750000Y75000000D01*
D11*
X44499998Y65350000D02*
X44499998Y66750002D01*
D11*
X27000000Y74000000D02*
X26250000Y74750000D01*
D11*
X46500000Y54250000D02*
X47500000Y55250000D01*
D11*
X36000000Y55000000D02*
X37000000Y56000000D01*
D11*
X32000000Y81000000D02*
X34750000Y81000000D01*
D11*
X33750000Y57000000D02*
X31750000Y57000000D01*
D11*
X5592576Y60579858D02*
X5592576Y59079858D01*
D11*
X34750000Y79500000D02*
X36250000Y81000000D01*
D11*
X13250000Y56000000D02*
X-8000000Y56000000D01*
D11*
X47500000Y58250000D02*
X45999998Y59750002D01*
D11*
X34500000Y54500000D02*
X35250000Y53750000D01*
D11*
X47750000Y75500000D02*
X46250000Y77000000D01*
D11*
X12000000Y70750062D02*
X12000008Y70750054D01*
D11*
X30000000Y77250000D02*
X30250000Y77000000D01*
D11*
X8842576Y58079858D02*
X6842576Y58079858D01*
D11*
X24500000Y82000000D02*
X24500000Y82750000D01*
D11*
X14000000Y58500000D02*
X14000000Y62250000D01*
D11*
X37000000Y85500000D02*
X42500000Y85500000D01*
D11*
X37000000Y67000000D02*
X43250001Y67000000D01*
D11*
X23125020Y58024980D02*
X22250000Y58900000D01*
D11*
X38500000Y71500000D02*
X38750000Y71250000D01*
D11*
X26250000Y79000000D02*
X26500000Y79250000D01*
D11*
X-14750000Y60750001D02*
X-8999999Y55000000D01*
D11*
X43250001Y67000000D02*
X43999998Y66250003D01*
D11*
X43399998Y64750000D02*
X42500000Y64750000D01*
D11*
X51250000Y54250000D02*
X49250000Y52250000D01*
D11*
X33000000Y52250000D02*
X32500000Y52750000D01*
D11*
X32500000Y82000000D02*
X32500000Y82750000D01*
D11*
X28250000Y55000000D02*
X28750000Y54500000D01*
D11*
X39000000Y92245004D02*
X38250000Y92995004D01*
D11*
X40250000Y70750000D02*
X41500000Y72000000D01*
D11*
X20150000Y57674980D02*
X20150000Y56499980D01*
D11*
X52000000Y68750000D02*
X52000000Y80062994D01*
D11*
X6280076Y65304858D02*
X6817576Y65304858D01*
D11*
X30500000Y83250000D02*
X31250000Y84000000D01*
D11*
X43399998Y63750000D02*
X42250000Y63750000D01*
D11*
X45667155Y68199999D02*
X45049998Y67582842D01*
D14*
X33800000Y94245000D02*
X32465000Y94245000D01*
D11*
X49000000Y52750000D02*
X33500000Y52750000D01*
D11*
X47499998Y60650000D02*
X47499998Y60325000D01*
D11*
X6280076Y63704858D02*
X10217576Y63704858D01*
D11*
X46500000Y71500000D02*
X47250000Y72250000D01*
D11*
X9750000Y83999998D02*
X11000000Y83999998D01*
D11*
X37500000Y93250000D02*
X37750000Y93500000D01*
D11*
X48099998Y62750000D02*
X49750000Y62750000D01*
D11*
X12000008Y72249990D02*
X12000000Y72249998D01*
D11*
X49500000Y51000000D02*
X52250000Y53750000D01*
D11*
X40750000Y69750000D02*
X42000000Y71000000D01*
D11*
X7092576Y64579858D02*
X7742576Y64579858D01*
D11*
X36529978Y95250000D02*
X36250000Y94970022D01*
D11*
X28750000Y74000000D02*
X27000000Y74000000D01*
D11*
X36250000Y68250000D02*
X33500000Y71000000D01*
D11*
X2500000Y94000000D02*
X4500000Y94000000D01*
G75*
D10*
X-18500000Y96000000D03*
D10*
X57250000Y96000000D03*
D10*
X57250000Y53000000D03*
D10*
X-18500000Y53000000D03*
D16*
X10842576Y65829858D03*
D16*
X12342576Y65829858D03*
D17*
X26000000Y82000000D03*
D17*
X24500000Y82000000D03*
D16*
X10842576Y61329858D03*
D16*
X12342576Y61329858D03*
D16*
X32500000Y82750000D03*
D16*
X34000000Y82750000D03*
D18*
X4250000Y89055000D03*
D18*
X9790000Y89055000D03*
D18*
X95000Y91895000D03*
D19*
X16750000Y90475000D03*
D18*
X5635000Y91895000D03*
D18*
X-1290000Y89055000D03*
D18*
X8405000Y91895000D03*
D19*
X-8250000Y90475000D03*
D18*
X2865000Y91895000D03*
D18*
X7020000Y89055000D03*
D18*
X1480000Y89055000D03*
D20*
X342576Y78079858D03*
D20*
X-2657424Y78079858D03*
D21*
X14300000Y73279998D03*
D21*
X14300000Y68719998D03*
D22*
X20600000Y70999998D03*
D23*
X37500000Y72600000D03*
D24*
X35500000Y77900000D03*
D23*
X38500000Y72600000D03*
D24*
X36500000Y77900000D03*
D24*
X39500000Y77900000D03*
D23*
X36500000Y72600000D03*
D25*
X37500000Y75250000D03*
D23*
X35500000Y72600000D03*
D23*
X39500000Y72600000D03*
D24*
X38500000Y77900000D03*
D24*
X37500000Y77900000D03*
D26*
X43399998Y63750000D03*
D27*
X48099998Y63750000D03*
D28*
X45499998Y60650000D03*
D26*
X43399998Y61250000D03*
D29*
X46499998Y65350000D03*
D26*
X43399998Y64750000D03*
D27*
X48099998Y62250000D03*
D28*
X45999998Y60650000D03*
D29*
X44499998Y65350000D03*
D26*
X43399998Y63250000D03*
D28*
X46499998Y60650000D03*
D26*
X43399998Y61750000D03*
D27*
X48099998Y63250000D03*
D28*
X47499998Y60650000D03*
D27*
X48099998Y61750000D03*
D29*
X46999998Y65350000D03*
D27*
X48099998Y62750000D03*
D30*
X45749998Y63000000D03*
D29*
X43999998Y65350000D03*
D28*
X44499998Y60650000D03*
D29*
X47499998Y65350000D03*
D29*
X44999998Y65350000D03*
D29*
X45499998Y65350000D03*
D28*
X44999998Y60650000D03*
D29*
X45999998Y65350000D03*
D27*
X48099998Y61250000D03*
D27*
X48099998Y64750000D03*
D26*
X43399998Y62750000D03*
D27*
X48099998Y64250000D03*
D26*
X43399998Y62250000D03*
D26*
X43399998Y64250000D03*
D28*
X43999998Y60650000D03*
D28*
X46999998Y60650000D03*
D31*
X22750000Y92850000D03*
D31*
X22750000Y89850000D03*
D32*
X47500000Y57750000D03*
D32*
X47500000Y56250000D03*
D33*
X7842576Y60329858D03*
D33*
X7842576Y61829858D03*
D17*
X26000000Y83500000D03*
D17*
X24500000Y83500000D03*
D34*
X45500000Y56208334D03*
D34*
X45500000Y57708334D03*
D17*
X18900000Y59749980D03*
D17*
X17400000Y59749980D03*
D35*
X3347576Y62844858D03*
D36*
X5617576Y61892358D03*
D37*
X2405076Y64279858D03*
D36*
X2917576Y61892358D03*
D38*
X2405076Y62804858D03*
D38*
X6280076Y64854858D03*
D36*
X3367576Y61892358D03*
D38*
X6280076Y64404858D03*
D36*
X4717576Y61892358D03*
D39*
X3667576Y64442358D03*
D36*
X5167576Y61892358D03*
D38*
X6280076Y62804858D03*
D40*
X5092576Y65279858D03*
D38*
X6280076Y65304858D03*
D38*
X6280076Y63254858D03*
D36*
X3817576Y61892358D03*
D41*
X5092576Y63342358D03*
D38*
X6280076Y63704858D03*
D36*
X4267576Y61892358D03*
D38*
X6280076Y62354858D03*
D42*
X47419238Y84643756D03*
D43*
X45580762Y91856244D03*
D43*
X42893756Y89169238D03*
D42*
X50106244Y87330762D03*
D44*
X42250000Y74500000D03*
D44*
X42250000Y73000000D03*
D17*
X24650000Y55000000D03*
D17*
X23150000Y55000000D03*
D45*
X13950000Y79864998D03*
D45*
X13950000Y82404998D03*
D46*
X8550000Y79864998D03*
D45*
X13950000Y78594998D03*
D45*
X13950000Y81134998D03*
D46*
X8550000Y82404998D03*
D46*
X8550000Y81134998D03*
D46*
X8550000Y78594998D03*
D44*
X43750000Y77000000D03*
D44*
X43750000Y75500000D03*
D32*
X34000000Y74250000D03*
D32*
X34000000Y72750000D03*
D34*
X38250000Y61500000D03*
D34*
X38250000Y63000000D03*
D32*
X9342576Y61829858D03*
D32*
X9342576Y60329858D03*
D34*
X48750000Y56250000D03*
D34*
X48750000Y57750000D03*
D33*
X50006250Y96000000D03*
D33*
X50006250Y97500000D03*
D16*
X7750000Y67500000D03*
D16*
X9250000Y67500000D03*
D34*
X4842576Y58579858D03*
D34*
X4842576Y60079858D03*
D32*
X40000000Y57750000D03*
D32*
X40000000Y56250000D03*
D47*
X-4557424Y72829858D03*
D47*
X-4557424Y62929858D03*
D48*
X40500002Y60000000D03*
D48*
X42000002Y60000000D03*
D49*
X3692576Y73779858D03*
D49*
X8692576Y73779858D03*
D20*
X342576Y82579858D03*
D20*
X-2657424Y82579858D03*
D50*
X33800000Y94245000D03*
D51*
X42110000Y94820000D03*
D52*
X38250000Y94245000D03*
D51*
X31890000Y98750000D03*
D52*
X35750000Y94245000D03*
D51*
X31890000Y94820000D03*
D52*
X37250000Y94245000D03*
D52*
X38750000Y94245000D03*
D52*
X35250000Y94245000D03*
D50*
X39400000Y94245000D03*
D51*
X42110000Y98750000D03*
D52*
X36750000Y94245000D03*
D50*
X34600000Y94245000D03*
D50*
X40200000Y94245000D03*
D52*
X37750000Y94245000D03*
D52*
X36250000Y94245000D03*
D20*
X342576Y84829858D03*
D20*
X-2657424Y84829858D03*
D17*
X18900000Y58249980D03*
D17*
X17400000Y58249980D03*
D17*
X12342576Y64329858D03*
D17*
X10842576Y64329858D03*
D53*
X26450000Y99000000D03*
D53*
X24050000Y99000000D03*
D54*
X28000000Y82462500D03*
D55*
X31212500Y81250000D03*
D54*
X29000000Y78537500D03*
D55*
X31212500Y80750000D03*
D55*
X27287500Y80750000D03*
D55*
X31212500Y79250000D03*
D55*
X31212500Y79750000D03*
D54*
X29000000Y82462500D03*
D54*
X29500000Y82462500D03*
D54*
X28500000Y78537500D03*
D54*
X29500000Y78537500D03*
D54*
X28500000Y82462500D03*
D54*
X30000000Y82462500D03*
D54*
X30500000Y82462500D03*
D55*
X27287500Y79750000D03*
D54*
X30500000Y78537500D03*
D54*
X28000000Y78537500D03*
D55*
X31212500Y80250000D03*
D56*
X29250000Y80500000D03*
D55*
X27287500Y79250000D03*
D54*
X30000000Y78537500D03*
D55*
X31212500Y81750000D03*
D55*
X27287500Y81250000D03*
D55*
X27287500Y81750000D03*
D55*
X27287500Y80250000D03*
D53*
X49968750Y99000000D03*
D53*
X47568750Y99000000D03*
D57*
X24250000Y88500000D03*
D57*
X22750000Y88500000D03*
D17*
X41750000Y61500000D03*
D17*
X40250000Y61500000D03*
D58*
X33500000Y87800000D03*
D58*
X34450000Y90200000D03*
D58*
X32550000Y90200000D03*
D57*
X3342576Y59829858D03*
D57*
X1842576Y59829858D03*
D44*
X45250000Y77000000D03*
D44*
X45250000Y75500000D03*
D20*
X342576Y80329858D03*
D20*
X-2657424Y80329858D03*
D17*
X30250000Y74000000D03*
D17*
X28750000Y74000000D03*
D16*
X48000000Y59250000D03*
D16*
X49500000Y59250000D03*
D48*
X7742576Y64579858D03*
D48*
X9242576Y64579858D03*
D57*
X52000000Y65750000D03*
D57*
X50500000Y65750000D03*
D34*
X12000000Y72249998D03*
D34*
X12000000Y73749998D03*
D17*
X12500000Y83999998D03*
D17*
X11000000Y83999998D03*
D33*
X34000000Y58000000D03*
D33*
X34000000Y59500000D03*
D16*
X6342576Y59079858D03*
D16*
X7842576Y59079858D03*
D34*
X28750000Y75500000D03*
D34*
X28750000Y77000000D03*
D59*
X24300000Y58674980D03*
D60*
X20500000Y59974980D03*
D59*
X24300000Y59974980D03*
D59*
X24300000Y58024980D03*
D60*
X20500000Y58674980D03*
D59*
X24300000Y59324980D03*
D60*
X20500000Y59324980D03*
D60*
X20500000Y58024980D03*
D33*
X16000000Y80904998D03*
D33*
X16000000Y82404998D03*
D17*
X18900000Y61250000D03*
D17*
X17400000Y61250000D03*
D44*
X42250000Y77000000D03*
D44*
X42250000Y75500000D03*
D17*
X12342576Y62829858D03*
D17*
X10842576Y62829858D03*
D16*
X24500000Y80500000D03*
D16*
X26000000Y80500000D03*
D20*
X342576Y75829858D03*
D20*
X-2657424Y75829858D03*
D57*
X21650000Y56499980D03*
D57*
X20150000Y56499980D03*
D58*
X37000000Y89550000D03*
D58*
X37950000Y91950000D03*
D58*
X36050000Y91950000D03*
D44*
X32500000Y74250000D03*
D44*
X32500000Y72750000D03*
D61*
X12000008Y68750054D03*
D61*
X12000008Y70750054D03*
D16*
X24500000Y85000000D03*
D16*
X26000000Y85000000D03*
D62*
X43849998Y57800000D03*
D62*
X41649998Y57800000D03*
D62*
X41649998Y56200000D03*
D62*
X43849998Y56200000D03*
D57*
X9750000Y83999998D03*
D57*
X8250000Y83999998D03*
D17*
X38500000Y81000000D03*
D17*
X37000000Y81000000D03*
D16*
X39500000Y81000000D03*
D16*
X41000000Y81000000D03*
D34*
X30250000Y75500000D03*
D34*
X30250000Y77000000D03*
D48*
X23150000Y56499980D03*
D48*
X24650000Y56499980D03*
D16*
X7742576Y66079858D03*
D16*
X9242576Y66079858D03*
D17*
X15000000Y65829858D03*
D17*
X13500000Y65829858D03*
D44*
X43750000Y74500000D03*
D44*
X43750000Y73000000D03*
D63*
X28980000Y66635000D03*
D63*
X31520000Y66635000D03*
D63*
X31520000Y65365000D03*
D63*
X30250000Y65365000D03*
D63*
X30250000Y66635000D03*
D63*
X28980000Y65365000D03*
D64*
X11550000Y76500000D03*
D64*
X14450000Y76500000D03*
D44*
X45250000Y74500000D03*
D44*
X45250000Y73000000D03*
D57*
X5092576Y67129858D03*
D57*
X3592576Y67129858D03*
D33*
X26500000Y96000000D03*
D33*
X26500000Y97500000D03*
D65*
X20000000Y66500000D03*
D65*
X35250000Y74500000D03*
D65*
X29250000Y81250000D03*
D65*
X26750000Y55600000D03*
D65*
X39000000Y91500000D03*
D65*
X27750000Y72250000D03*
D65*
X33250000Y71000000D03*
D65*
X3350000Y64200000D03*
D65*
X52000000Y63750000D03*
D65*
X47000000Y63000000D03*
D65*
X24750000Y74000000D03*
D65*
X30000000Y94750000D03*
D65*
X4250000Y81500000D03*
D65*
X3250000Y58750000D03*
D65*
X5300000Y62925000D03*
D65*
X3500000Y82250000D03*
D65*
X46750000Y75000000D03*
D65*
X3500000Y85250000D03*
D65*
X2000000Y80000000D03*
D65*
X54000000Y63750000D03*
D65*
X32500000Y53750000D03*
D65*
X34750000Y84750000D03*
D65*
X39400000Y92850000D03*
D65*
X2750000Y80750000D03*
D65*
X34600000Y92850000D03*
D65*
X2000000Y84500000D03*
D65*
X37000000Y56000000D03*
D65*
X47500000Y55250000D03*
D65*
X4250000Y83000000D03*
D65*
X20500000Y80500000D03*
D65*
X41000000Y69000000D03*
D65*
X46000000Y68799999D03*
D65*
X16250000Y76000000D03*
D65*
X13500000Y63000000D03*
D65*
X42000000Y69000000D03*
D65*
X45750000Y61750000D03*
D65*
X2750000Y85250000D03*
D65*
X30000000Y96250000D03*
D65*
X2750000Y86000000D03*
D65*
X39750000Y76000000D03*
D65*
X24750000Y70000000D03*
D65*
X13500000Y65000000D03*
D65*
X48750000Y55500000D03*
D65*
X2000000Y77750000D03*
D65*
X3500000Y81500000D03*
D65*
X38000000Y68250000D03*
D65*
X44000000Y99250000D03*
D65*
X2750000Y82250000D03*
D65*
X29250000Y80500000D03*
D65*
X5250000Y84250000D03*
D65*
X24400000Y60750000D03*
D65*
X4250000Y82250000D03*
D65*
X4250000Y77750000D03*
D65*
X44000000Y97750000D03*
D65*
X30000000Y79750000D03*
D65*
X37750000Y83250000D03*
D65*
X47000000Y61750000D03*
D65*
X45750000Y64250000D03*
D65*
X45933788Y66998519D03*
D65*
X30000000Y80500000D03*
D65*
X44000000Y95500000D03*
D65*
X51250000Y68000000D03*
D65*
X24750000Y69000000D03*
D65*
X41500000Y58708334D03*
D65*
X2000000Y86000000D03*
D65*
X4010120Y60536104D03*
D65*
X37000000Y84750000D03*
D65*
X1500000Y76000000D03*
D65*
X34013778Y53749740D03*
D65*
X2750000Y83750000D03*
D65*
X40500000Y79250000D03*
D65*
X43750000Y75000000D03*
D65*
X2250000Y76000000D03*
D65*
X4250000Y79250000D03*
D65*
X4250000Y80750000D03*
D65*
X3500000Y83750000D03*
D65*
X28500000Y80500000D03*
D65*
X29500000Y75500000D03*
D65*
X34000000Y60250000D03*
D65*
X30000000Y95500000D03*
D65*
X33250000Y56249998D03*
D65*
X46800003Y68799999D03*
D65*
X4000000Y70000000D03*
D65*
X35500000Y83250000D03*
D65*
X30000000Y97750000D03*
D65*
X37500000Y79250000D03*
D65*
X2750000Y77750000D03*
D65*
X30000000Y94000000D03*
D65*
X28500000Y79750000D03*
D65*
X35250000Y75250000D03*
D65*
X26750000Y53724980D03*
D65*
X3500000Y78500000D03*
D65*
X4917576Y63729858D03*
D65*
X30000000Y81250000D03*
D65*
X4250000Y85250000D03*
D65*
X22400020Y56499980D03*
D65*
X2750000Y79250000D03*
D65*
X20000000Y63250000D03*
D65*
X50500000Y66500000D03*
D65*
X44000000Y98500000D03*
D65*
X3500000Y77750000D03*
D65*
X24500000Y82750000D03*
D65*
X42000000Y65750000D03*
D65*
X2000000Y83000000D03*
D65*
X3500000Y84500000D03*
D65*
X47000000Y64250000D03*
D65*
X44500000Y63000000D03*
D65*
X2000000Y83750000D03*
D65*
X27750000Y74750000D03*
D65*
X33500000Y89000000D03*
D65*
X43000000Y96410000D03*
D65*
X45500000Y55500000D03*
D65*
X29250000Y79750000D03*
D65*
X2750000Y81500000D03*
D65*
X2000000Y79250000D03*
D65*
X4250000Y83750000D03*
D65*
X26000000Y54324980D03*
D65*
X24750000Y73000000D03*
D65*
X38000000Y65750000D03*
D65*
X23250000Y99000000D03*
D65*
X4750000Y70000000D03*
D65*
X39500000Y60000000D03*
D65*
X26500000Y94000000D03*
D65*
X2750000Y78500000D03*
D65*
X37000000Y84000000D03*
D65*
X24750000Y72000000D03*
D65*
X2000000Y81500000D03*
D65*
X32500000Y57750000D03*
D65*
X26500000Y91500000D03*
D65*
X32000000Y97160000D03*
D65*
X44500000Y64250000D03*
D65*
X27250000Y66000000D03*
D65*
X34500000Y91000000D03*
D65*
X31250000Y71000000D03*
D65*
X4000000Y69250000D03*
D65*
X2000000Y82250000D03*
D65*
X36250000Y89500000D03*
D65*
X49000000Y65000000D03*
D65*
X4000000Y68500000D03*
D65*
X2750000Y80000000D03*
D65*
X3250000Y69250000D03*
D65*
X24750000Y71000000D03*
D65*
X38000000Y57000000D03*
D65*
X47500000Y51000000D03*
D65*
X2250000Y75250000D03*
D65*
X12000000Y71500000D03*
D65*
X2750000Y83000000D03*
D65*
X250000Y96250000D03*
D65*
X3950000Y63675000D03*
D65*
X39750000Y74500000D03*
D65*
X1500000Y75250000D03*
D65*
X3250000Y68500000D03*
D65*
X12342576Y60579858D03*
D65*
X44000000Y94750000D03*
D65*
X42000000Y97160000D03*
D65*
X49000000Y69000000D03*
D65*
X31000000Y96410000D03*
D65*
X32000000Y96410000D03*
D65*
X44000000Y94000000D03*
D65*
X37000000Y81750000D03*
D65*
X4250000Y78500000D03*
D65*
X39000000Y68250000D03*
D65*
X34013909Y56263909D03*
D65*
X39750000Y75250000D03*
D65*
X42000000Y96410000D03*
D65*
X43000000Y97160000D03*
D65*
X43000000Y82500000D03*
D65*
X3500000Y86000000D03*
D65*
X4250000Y84500000D03*
D65*
X31000000Y97160000D03*
D65*
X33263909Y53763909D03*
D65*
X25000000Y88500000D03*
D65*
X44000000Y97000000D03*
D65*
X44000000Y96250000D03*
D65*
X18000000Y82250000D03*
D65*
X34000000Y82000000D03*
D65*
X41000000Y81750000D03*
D65*
X41000000Y65750000D03*
D65*
X25949997Y55600000D03*
D65*
X44500000Y61750000D03*
D65*
X52000000Y66500000D03*
D65*
X41500000Y73000000D03*
D65*
X28500000Y81250000D03*
D65*
X30000000Y98500000D03*
D65*
X30000000Y97000000D03*
D65*
X3500000Y80000000D03*
D65*
X2000000Y78500000D03*
D65*
X34750000Y85500000D03*
D65*
X35250000Y76000000D03*
D65*
X10023165Y62525870D03*
D65*
X3350000Y65250000D03*
D65*
X2750000Y84500000D03*
D65*
X34750000Y84000000D03*
D65*
X3500000Y83000000D03*
D65*
X39500000Y61500000D03*
D65*
X13750000Y74750000D03*
D65*
X2250000Y76750000D03*
D65*
X46733590Y67016410D03*
D65*
X4250000Y80000000D03*
D65*
X40500000Y80000000D03*
D65*
X2000000Y80750000D03*
D65*
X45749998Y63000001D03*
D65*
X37500000Y80000000D03*
D65*
X30000000Y99250000D03*
D65*
X3925000Y64850000D03*
D65*
X3250000Y70000000D03*
D65*
X842576Y60579858D03*
D65*
X39000000Y65750000D03*
D65*
X24750000Y68000000D03*
D65*
X1500000Y76750000D03*
D65*
X3500000Y80750000D03*
D65*
X45500000Y87500000D03*
D65*
X2000000Y85250000D03*
D65*
X3500000Y79250000D03*
D65*
X37000000Y85500000D03*
D65*
X4750000Y69250000D03*
D65*
X6592576Y61579858D03*
M02*
