%FSLAX46Y46*%
%MOMM*%
%AMPS29*
4,1,20,
0.087500,0.875000,
0.087500,0.725000,
-0.362500,0.725000,
-0.362500,0.425000,
0.087500,0.425000,
0.087500,0.275000,
-0.362500,0.275000,
-0.362500,-0.025000,
0.087500,-0.025000,
0.087500,-0.425000,
-0.362500,-0.425000,
-0.362500,-0.725000,
0.087500,-0.725000,
0.087500,-0.875000,
-0.362500,-0.875000,
-0.362500,-1.175000,
0.362500,-1.175000,
0.362500,1.175000,
-0.362500,1.175000,
-0.362500,0.875000,
0.087500,0.875000,
0*
%
%ADD29PS29*%
%AMPS14*
4,1,4,
3.150000,2.850000,
3.150000,0.150000,
0.150000,0.150000,
0.150000,2.850000,
3.150000,2.850000,
0*
4,1,4,
0.150000,-2.850000,
0.150000,-0.150000,
3.150000,-0.150000,
3.150000,-2.850000,
0.150000,-2.850000,
0*
4,1,4,
-3.150000,-2.850000,
-3.150000,-0.150000,
-0.150000,-0.150000,
-0.150000,-2.850000,
-3.150000,-2.850000,
0*
4,1,4,
-0.150000,2.850000,
-0.150000,0.150000,
-3.150000,0.150000,
-3.150000,2.850000,
-0.150000,2.850000,
0*
%
%ADD14PS14*%
%AMPS27*
21,1,0.580000,0.380000,0.000000,0.000000,270.000000*
%
%ADD27PS27*%
%AMPS34*
21,1,1.000000,1.600000,0.000000,0.000000,45.000000*
%
%ADD34PS34*%
%AMPS35*
21,1,1.000000,1.600000,0.000000,0.000000,225.000000*
%
%ADD35PS35*%
%AMPS48*
21,1,2.700000,2.700000,0.000000,0.000000,180.000000*
%
%ADD48PS48*%
%AMPS45*
21,1,0.900000,1.000000,0.000000,0.000000,0.000000*
%
%ADD45PS45*%
%AMPS33*
21,1,1.575000,1.050000,0.000000,0.000000,270.000000*
%
%ADD33PS33*%
%AMPS41*
21,1,3.200000,1.600000,0.000000,0.000000,180.000000*
%
%ADD41PS41*%
%AMPS28*
21,1,0.300000,0.725000,0.000000,0.000000,180.000000*
%
%ADD28PS28*%
%AMPS30*
21,1,0.300000,0.725000,0.000000,0.000000,270.000000*
%
%ADD30PS30*%
%AMPS37*
21,1,0.600000,1.500000,0.000000,0.000000,90.000000*
%
%ADD37PS37*%
%AMPS38*
21,1,0.600000,1.500000,0.000000,0.000000,270.000000*
%
%ADD38PS38*%
%AMPS39*
21,1,2.900000,5.400000,0.000000,0.000000,90.000000*
%
%ADD39PS39*%
%AMPS17*
21,1,2.500000,3.400000,0.000000,0.000000,90.000000*
%
%ADD17PS17*%
%AMPS42*
21,1,0.600000,1.150000,0.000000,0.000000,180.000000*
%
%ADD42PS42*%
%AMPS20*
21,1,0.300000,0.600000,0.000000,0.000000,0.000000*
%
%ADD20PS20*%
%AMPS19*
21,1,0.300000,0.600000,0.000000,0.000000,90.000000*
%
%ADD19PS19*%
%AMPS21*
21,1,0.300000,0.600000,0.000000,0.000000,180.000000*
%
%ADD21PS21*%
%AMPS18*
21,1,0.300000,0.600000,0.000000,0.000000,270.000000*
%
%ADD18PS18*%
%AMPS43*
21,1,2.180000,2.000000,0.000000,0.000000,180.000000*
%
%ADD43PS43*%
%AMPS44*
21,1,0.300000,1.150000,0.000000,0.000000,180.000000*
%
%ADD44PS44*%
%AMPS54*
21,1,1.400000,1.200000,0.000000,0.000000,0.000000*
%
%ADD54PS54*%
%AMPS31*
4,1,14,
0.145000,-1.037500,
0.145000,-1.687500,
0.600000,-1.687500,
0.600000,1.137500,
0.300000,1.137500,
0.300000,1.687500,
0.000000,1.687500,
0.000000,1.137500,
-0.150000,1.137500,
-0.150000,1.687500,
-0.450000,1.687500,
-0.450000,1.137500,
-0.600000,1.137500,
-0.600000,-1.037500,
0.145000,-1.037500,
0*
%
%ADD31PS31*%
%AMPS32*
4,1,10,
0.525000,-0.850000,
0.525000,0.300000,
0.225000,0.300000,
0.225000,0.850000,
-0.075000,0.850000,
-0.075000,0.300000,
-0.225000,0.300000,
-0.225000,0.850000,
-0.525000,0.850000,
-0.525000,-0.850000,
0.525000,-0.850000,
0*
%
%ADD32PS32*%
%AMPS12*
1,1,0.500000,0.250000,0.550000*
1,1,0.500000,0.250000,-0.550000*
21,1,1.000000,1.100000,0.000000,0.000000,180.000000*
21,1,0.500000,1.600000,0.000000,0.000000,180.000000*
1,1,0.500000,-0.250000,0.550000*
1,1,0.500000,-0.250000,-0.550000*
%
%ADD12PS12*%
%AMPS23*
1,1,0.500000,-0.550000,0.250000*
1,1,0.500000,0.550000,0.250000*
21,1,1.000000,1.100000,0.000000,0.000000,270.000000*
21,1,0.500000,1.600000,0.000000,0.000000,270.000000*
1,1,0.500000,-0.550000,-0.250000*
1,1,0.500000,0.550000,-0.250000*
%
%ADD23PS23*%
%AMPS51*
1,1,0.100000,0.500000,-0.150000*
1,1,0.100000,-0.500000,-0.150000*
21,1,0.400000,1.000000,0.000000,0.000000,90.000000*
21,1,0.300000,1.100000,0.000000,0.000000,90.000000*
1,1,0.100000,0.500000,0.150000*
1,1,0.100000,-0.500000,0.150000*
%
%ADD51PS51*%
%AMPS52*
1,1,0.100000,-0.500000,0.150000*
1,1,0.100000,0.500000,0.150000*
21,1,0.400000,1.000000,0.000000,0.000000,270.000000*
21,1,0.300000,1.100000,0.000000,0.000000,270.000000*
1,1,0.100000,-0.500000,-0.150000*
1,1,0.100000,0.500000,-0.150000*
%
%ADD52PS52*%
%AMPS46*
1,1,0.125000,0.062500,0.350000*
1,1,0.125000,0.062500,-0.350000*
21,1,0.250000,0.700000,0.000000,0.000000,180.000000*
21,1,0.125000,0.825000,0.000000,0.000000,180.000000*
1,1,0.125000,-0.062500,0.350000*
1,1,0.125000,-0.062500,-0.350000*
%
%ADD46PS46*%
%AMPS49*
1,1,0.360000,-0.220000,-0.195000*
1,1,0.360000,-0.220000,0.195000*
21,1,0.800000,0.390000,0.000000,0.000000,0.000000*
21,1,0.440000,0.750000,0.000000,0.000000,0.000000*
1,1,0.360000,0.220000,-0.195000*
1,1,0.360000,0.220000,0.195000*
%
%ADD49PS49*%
%AMPS24*
1,1,0.360000,0.195000,-0.220000*
1,1,0.360000,-0.195000,-0.220000*
21,1,0.800000,0.390000,0.000000,0.000000,90.000000*
21,1,0.440000,0.750000,0.000000,0.000000,90.000000*
1,1,0.360000,0.195000,0.220000*
1,1,0.360000,-0.195000,0.220000*
%
%ADD24PS24*%
%AMPS40*
1,1,0.360000,0.220000,0.195000*
1,1,0.360000,0.220000,-0.195000*
21,1,0.800000,0.390000,0.000000,0.000000,180.000000*
21,1,0.440000,0.750000,0.000000,0.000000,180.000000*
1,1,0.360000,-0.220000,0.195000*
1,1,0.360000,-0.220000,-0.195000*
%
%ADD40PS40*%
%AMPS26*
1,1,0.360000,-0.195000,0.220000*
1,1,0.360000,0.195000,0.220000*
21,1,0.800000,0.390000,0.000000,0.000000,270.000000*
21,1,0.440000,0.750000,0.000000,0.000000,270.000000*
1,1,0.360000,-0.195000,-0.220000*
1,1,0.360000,0.195000,-0.220000*
%
%ADD26PS26*%
%AMPS15*
1,1,0.300000,-0.175000,-0.675000*
1,1,0.300000,-0.175000,0.675000*
21,1,0.650000,1.350000,0.000000,0.000000,0.000000*
21,1,0.350000,1.650000,0.000000,0.000000,0.000000*
1,1,0.300000,0.175000,-0.675000*
1,1,0.300000,0.175000,0.675000*
%
%ADD15PS15*%
%AMPS16*
1,1,0.300000,0.175000,0.675000*
1,1,0.300000,0.175000,-0.675000*
21,1,0.650000,1.350000,0.000000,0.000000,180.000000*
21,1,0.350000,1.650000,0.000000,0.000000,180.000000*
1,1,0.300000,-0.175000,0.675000*
1,1,0.300000,-0.175000,-0.675000*
%
%ADD16PS16*%
%AMPS55*
1,1,0.440000,0.230000,0.630000*
1,1,0.440000,0.230000,-0.630000*
21,1,0.900000,1.260000,0.000000,0.000000,180.000000*
21,1,0.460000,1.700000,0.000000,0.000000,180.000000*
1,1,0.440000,-0.230000,0.630000*
1,1,0.440000,-0.230000,-0.630000*
%
%ADD55PS55*%
%AMPS53*
1,1,0.500000,0.375000,-0.250000*
1,1,0.500000,-0.375000,-0.250000*
21,1,1.000000,0.750000,0.000000,0.000000,90.000000*
21,1,0.500000,1.250000,0.000000,0.000000,90.000000*
1,1,0.500000,0.375000,0.250000*
1,1,0.500000,-0.375000,0.250000*
%
%ADD53PS53*%
%AMPS10*
1,1,0.240000,-0.130000,-0.330000*
1,1,0.240000,-0.130000,0.330000*
21,1,0.500000,0.660000,0.000000,0.000000,0.000000*
21,1,0.260000,0.900000,0.000000,0.000000,0.000000*
1,1,0.240000,0.130000,-0.330000*
1,1,0.240000,0.130000,0.330000*
%
%ADD10PS10*%
%AMPS25*
1,1,0.240000,0.330000,-0.130000*
1,1,0.240000,-0.330000,-0.130000*
21,1,0.500000,0.660000,0.000000,0.000000,90.000000*
21,1,0.260000,0.900000,0.000000,0.000000,90.000000*
1,1,0.240000,0.330000,0.130000*
1,1,0.240000,-0.330000,0.130000*
%
%ADD25PS25*%
%AMPS11*
1,1,0.240000,0.130000,0.330000*
1,1,0.240000,0.130000,-0.330000*
21,1,0.500000,0.660000,0.000000,0.000000,180.000000*
21,1,0.260000,0.900000,0.000000,0.000000,180.000000*
1,1,0.240000,-0.130000,0.330000*
1,1,0.240000,-0.130000,-0.330000*
%
%ADD11PS11*%
%AMPS36*
1,1,0.240000,-0.330000,0.130000*
1,1,0.240000,0.330000,0.130000*
21,1,0.500000,0.660000,0.000000,0.000000,270.000000*
21,1,0.260000,0.900000,0.000000,0.000000,270.000000*
1,1,0.240000,-0.330000,-0.130000*
1,1,0.240000,0.330000,-0.130000*
%
%ADD36PS36*%
%AMPS13*
1,1,0.500000,-0.850000,-0.350000*
1,1,0.500000,-0.850000,0.350000*
21,1,2.200000,0.700000,0.000000,0.000000,0.000000*
21,1,1.700000,1.200000,0.000000,0.000000,0.000000*
1,1,0.500000,0.850000,-0.350000*
1,1,0.500000,0.850000,0.350000*
%
%ADD13PS13*%
%AMPS50*
1,1,0.340000,-0.180000,-0.330000*
1,1,0.340000,-0.180000,0.330000*
21,1,0.700000,0.660000,0.000000,0.000000,0.000000*
21,1,0.360000,1.000000,0.000000,0.000000,0.000000*
1,1,0.340000,0.180000,-0.330000*
1,1,0.340000,0.180000,0.330000*
%
%ADD50PS50*%
%AMPS47*
1,1,0.125000,0.350000,0.062500*
1,1,0.125000,0.350000,-0.062500*
21,1,0.825000,0.125000,0.000000,0.000000,180.000000*
21,1,0.700000,0.250000,0.000000,0.000000,180.000000*
1,1,0.125000,-0.350000,0.062500*
1,1,0.125000,-0.350000,-0.062500*
%
%ADD47PS47*%
%AMPS22*
4,1,4,
1.443750,0.206250,
0.206250,0.206250,
0.206250,1.443750,
1.443750,1.443750,
1.443750,0.206250,
0*
4,1,4,
-0.206250,0.206250,
-1.443750,0.206250,
-1.443750,1.443750,
-0.206250,1.443750,
-0.206250,0.206250,
0*
4,1,4,
-0.206250,-1.443750,
-1.443750,-1.443750,
-1.443750,-0.206250,
-0.206250,-0.206250,
-0.206250,-1.443750,
0*
4,1,4,
1.443750,-1.443750,
0.206250,-1.443750,
0.206250,-0.206250,
1.443750,-0.206250,
1.443750,-1.443750,
0*
%
%ADD22PS22*%
G01*
G01*
%LPD*%
G75*
D10*
X10842576Y65829858D03*
D10*
X12342576Y65829858D03*
D11*
X26000000Y82000000D03*
D11*
X24500000Y82000000D03*
D10*
X10842576Y61329858D03*
D10*
X12342576Y61329858D03*
D10*
X32500000Y82750000D03*
D10*
X34000000Y82750000D03*
D12*
X342576Y78079858D03*
D12*
X-2657424Y78079858D03*
D13*
X14300000Y73279998D03*
D13*
X14300000Y68719998D03*
D14*
X20600000Y70999998D03*
D15*
X37500000Y72600000D03*
D16*
X35500000Y77900000D03*
D15*
X38500000Y72600000D03*
D16*
X36500000Y77900000D03*
D16*
X39500000Y77900000D03*
D15*
X36500000Y72600000D03*
D17*
X37500000Y75250000D03*
D15*
X35500000Y72600000D03*
D15*
X39500000Y72600000D03*
D16*
X38500000Y77900000D03*
D16*
X37500000Y77900000D03*
D18*
X43399998Y63750000D03*
D19*
X48099998Y63750000D03*
D20*
X45499998Y60650000D03*
D18*
X43399998Y61250000D03*
D21*
X46499998Y65350000D03*
D18*
X43399998Y64750000D03*
D19*
X48099998Y62250000D03*
D20*
X45999998Y60650000D03*
D21*
X44499998Y65350000D03*
D18*
X43399998Y63250000D03*
D20*
X46499998Y60650000D03*
D18*
X43399998Y61750000D03*
D19*
X48099998Y63250000D03*
D20*
X47499998Y60650000D03*
D19*
X48099998Y61750000D03*
D21*
X46999998Y65350000D03*
D19*
X48099998Y62750000D03*
D22*
X45749998Y63000000D03*
D21*
X43999998Y65350000D03*
D20*
X44499998Y60650000D03*
D21*
X47499998Y65350000D03*
D21*
X44999998Y65350000D03*
D21*
X45499998Y65350000D03*
D20*
X44999998Y60650000D03*
D21*
X45999998Y65350000D03*
D19*
X48099998Y61250000D03*
D19*
X48099998Y64750000D03*
D18*
X43399998Y62750000D03*
D19*
X48099998Y64250000D03*
D18*
X43399998Y62250000D03*
D18*
X43399998Y64250000D03*
D20*
X43999998Y60650000D03*
D20*
X46999998Y60650000D03*
D23*
X22750000Y92850000D03*
D23*
X22750000Y89850000D03*
D24*
X47500000Y57750000D03*
D24*
X47500000Y56250000D03*
D25*
X7842576Y60329858D03*
D25*
X7842576Y61829858D03*
D11*
X26000000Y83500000D03*
D11*
X24500000Y83500000D03*
D26*
X45500000Y56208334D03*
D26*
X45500000Y57708334D03*
D11*
X18900000Y59749980D03*
D11*
X17400000Y59749980D03*
D27*
X3347576Y62844858D03*
D28*
X5617576Y61892358D03*
D29*
X2405076Y64279858D03*
D28*
X2917576Y61892358D03*
D30*
X2405076Y62804858D03*
D30*
X6280076Y64854858D03*
D28*
X3367576Y61892358D03*
D30*
X6280076Y64404858D03*
D28*
X4717576Y61892358D03*
D31*
X3667576Y64442358D03*
D28*
X5167576Y61892358D03*
D30*
X6280076Y62804858D03*
D32*
X5092576Y65279858D03*
D30*
X6280076Y65304858D03*
D30*
X6280076Y63254858D03*
D28*
X3817576Y61892358D03*
D33*
X5092576Y63342358D03*
D30*
X6280076Y63704858D03*
D28*
X4267576Y61892358D03*
D30*
X6280076Y62354858D03*
D34*
X47419238Y84643756D03*
D35*
X45580762Y91856244D03*
D35*
X42893756Y89169238D03*
D34*
X50106244Y87330762D03*
D36*
X42250000Y74500000D03*
D36*
X42250000Y73000000D03*
D11*
X24650000Y55000000D03*
D11*
X23150000Y55000000D03*
D37*
X13950000Y79864998D03*
D37*
X13950000Y82404998D03*
D38*
X8550000Y79864998D03*
D37*
X13950000Y78594998D03*
D37*
X13950000Y81134998D03*
D38*
X8550000Y82404998D03*
D38*
X8550000Y81134998D03*
D38*
X8550000Y78594998D03*
D36*
X43750000Y77000000D03*
D36*
X43750000Y75500000D03*
D24*
X34000000Y74250000D03*
D24*
X34000000Y72750000D03*
D26*
X38250000Y61500000D03*
D26*
X38250000Y63000000D03*
D24*
X9342576Y61829858D03*
D24*
X9342576Y60329858D03*
D26*
X48750000Y56250000D03*
D26*
X48750000Y57750000D03*
D25*
X50006250Y96000000D03*
D25*
X50006250Y97500000D03*
D10*
X7750000Y67500000D03*
D10*
X9250000Y67500000D03*
D26*
X4842576Y58579858D03*
D26*
X4842576Y60079858D03*
D24*
X40000000Y57750000D03*
D24*
X40000000Y56250000D03*
D39*
X-4557424Y72829858D03*
D39*
X-4557424Y62929858D03*
D40*
X40500002Y60000000D03*
D40*
X42000002Y60000000D03*
D41*
X3692576Y73779858D03*
D41*
X8692576Y73779858D03*
D12*
X342576Y82579858D03*
D12*
X-2657424Y82579858D03*
D42*
X33800000Y94245000D03*
D43*
X42110000Y94820000D03*
D44*
X38250000Y94245000D03*
D43*
X31890000Y98750000D03*
D44*
X35750000Y94245000D03*
D43*
X31890000Y94820000D03*
D44*
X37250000Y94245000D03*
D44*
X38750000Y94245000D03*
D44*
X35250000Y94245000D03*
D42*
X39400000Y94245000D03*
D43*
X42110000Y98750000D03*
D44*
X36750000Y94245000D03*
D42*
X34600000Y94245000D03*
D42*
X40200000Y94245000D03*
D44*
X37750000Y94245000D03*
D44*
X36250000Y94245000D03*
D12*
X342576Y84829858D03*
D12*
X-2657424Y84829858D03*
D11*
X18900000Y58249980D03*
D11*
X17400000Y58249980D03*
D11*
X12342576Y64329858D03*
D11*
X10842576Y64329858D03*
D45*
X26450000Y99000000D03*
D45*
X24050000Y99000000D03*
D46*
X28000000Y82462500D03*
D47*
X31212500Y81250000D03*
D46*
X29000000Y78537500D03*
D47*
X31212500Y80750000D03*
D47*
X27287500Y80750000D03*
D47*
X31212500Y79250000D03*
D47*
X31212500Y79750000D03*
D46*
X29000000Y82462500D03*
D46*
X29500000Y82462500D03*
D46*
X28500000Y78537500D03*
D46*
X29500000Y78537500D03*
D46*
X28500000Y82462500D03*
D46*
X30000000Y82462500D03*
D46*
X30500000Y82462500D03*
D47*
X27287500Y79750000D03*
D46*
X30500000Y78537500D03*
D46*
X28000000Y78537500D03*
D47*
X31212500Y80250000D03*
D48*
X29250000Y80500000D03*
D47*
X27287500Y79250000D03*
D46*
X30000000Y78537500D03*
D47*
X31212500Y81750000D03*
D47*
X27287500Y81250000D03*
D47*
X27287500Y81750000D03*
D47*
X27287500Y80250000D03*
D45*
X49968750Y99000000D03*
D45*
X47568750Y99000000D03*
D49*
X24250000Y88500000D03*
D49*
X22750000Y88500000D03*
D11*
X41750000Y61500000D03*
D11*
X40250000Y61500000D03*
D50*
X33500000Y87800000D03*
D50*
X34450000Y90200000D03*
D50*
X32550000Y90200000D03*
D49*
X3342576Y59829858D03*
D49*
X1842576Y59829858D03*
D36*
X45250000Y77000000D03*
D36*
X45250000Y75500000D03*
D12*
X342576Y80329858D03*
D12*
X-2657424Y80329858D03*
D11*
X30250000Y74000000D03*
D11*
X28750000Y74000000D03*
D10*
X48000000Y59250000D03*
D10*
X49500000Y59250000D03*
D40*
X7742576Y64579858D03*
D40*
X9242576Y64579858D03*
D49*
X52000000Y65750000D03*
D49*
X50500000Y65750000D03*
D26*
X12000000Y72249998D03*
D26*
X12000000Y73749998D03*
D11*
X12500000Y83999998D03*
D11*
X11000000Y83999998D03*
D25*
X34000000Y58000000D03*
D25*
X34000000Y59500000D03*
D10*
X6342576Y59079858D03*
D10*
X7842576Y59079858D03*
D26*
X28750000Y75500000D03*
D26*
X28750000Y77000000D03*
D51*
X24300000Y58674980D03*
D52*
X20500000Y59974980D03*
D51*
X24300000Y59974980D03*
D51*
X24300000Y58024980D03*
D52*
X20500000Y58674980D03*
D51*
X24300000Y59324980D03*
D52*
X20500000Y59324980D03*
D52*
X20500000Y58024980D03*
D25*
X16000000Y80904998D03*
D25*
X16000000Y82404998D03*
D11*
X18900000Y61250000D03*
D11*
X17400000Y61250000D03*
D36*
X42250000Y77000000D03*
D36*
X42250000Y75500000D03*
D11*
X12342576Y62829858D03*
D11*
X10842576Y62829858D03*
D10*
X24500000Y80500000D03*
D10*
X26000000Y80500000D03*
D12*
X342576Y75829858D03*
D12*
X-2657424Y75829858D03*
D49*
X21650000Y56499980D03*
D49*
X20150000Y56499980D03*
D50*
X37000000Y89550000D03*
D50*
X37950000Y91950000D03*
D50*
X36050000Y91950000D03*
D36*
X32500000Y74250000D03*
D36*
X32500000Y72750000D03*
D53*
X12000008Y68750054D03*
D53*
X12000008Y70750054D03*
D10*
X24500000Y85000000D03*
D10*
X26000000Y85000000D03*
D54*
X43849998Y57800000D03*
D54*
X41649998Y57800000D03*
D54*
X41649998Y56200000D03*
D54*
X43849998Y56200000D03*
D49*
X9750000Y83999998D03*
D49*
X8250000Y83999998D03*
D11*
X38500000Y81000000D03*
D11*
X37000000Y81000000D03*
D10*
X39500000Y81000000D03*
D10*
X41000000Y81000000D03*
D26*
X30250000Y75500000D03*
D26*
X30250000Y77000000D03*
D40*
X23150000Y56499980D03*
D40*
X24650000Y56499980D03*
D10*
X7742576Y66079858D03*
D10*
X9242576Y66079858D03*
D11*
X15000000Y65829858D03*
D11*
X13500000Y65829858D03*
D36*
X43750000Y74500000D03*
D36*
X43750000Y73000000D03*
D55*
X11550000Y76500000D03*
D55*
X14450000Y76500000D03*
D36*
X45250000Y74500000D03*
D36*
X45250000Y73000000D03*
D49*
X5092576Y67129858D03*
D49*
X3592576Y67129858D03*
D25*
X26500000Y96000000D03*
D25*
X26500000Y97500000D03*
M02*
