%FSLAX46Y46*%
%MOMM*%
%ADD11C,0.150000*%
%ADD10C,0.250000*%
G01*
G01*
%LPD*%
D10*
X-4761905Y67797616D02*
X-5333334Y69797616D01*
D10*
X-4857143Y67797616D02*
X-5428572Y69797616D01*
D10*
X-5714286Y69797616D02*
X-5047619Y69797616D01*
D10*
X-5904762Y67797616D02*
X-4476191Y67797616D01*
D10*
X-6095238Y68369048D02*
X-5904762Y67797616D01*
D10*
X-5809524Y67797616D02*
X-6095238Y68369048D01*
D10*
X-6571429Y68940480D02*
X-6476191Y68750000D01*
D10*
X-6761905Y69130952D02*
X-6571429Y68940480D01*
D10*
X-7047619Y69130952D02*
X-6761905Y69130952D01*
D10*
X-7142857Y69035712D02*
X-7047619Y69130952D01*
D10*
X-7142857Y68750000D02*
X-7142857Y69035712D01*
D10*
X-6952381Y68178568D02*
X-7142857Y68750000D01*
D10*
X-6952381Y67988096D02*
X-6952381Y68178568D01*
D10*
X-7142857Y67797616D02*
X-6952381Y67988096D01*
D10*
X-7047619Y69035712D02*
X-6952381Y69130952D01*
D10*
X-7047619Y68750000D02*
X-7047619Y69035712D01*
D10*
X-6857143Y68178568D02*
X-7047619Y68750000D01*
D10*
X-6857143Y67988096D02*
X-6857143Y68178568D01*
D10*
X-6952381Y67892856D02*
X-6857143Y67988096D01*
D10*
X-7142857Y67797616D02*
X-6952381Y67892856D01*
D10*
X-7333334Y67797616D02*
X-7142857Y67797616D01*
D10*
X-7523810Y67892856D02*
X-7333334Y67797616D01*
D10*
X-7714286Y68083336D02*
X-7523810Y67892856D01*
D10*
X-7904762Y68464288D02*
X-7714286Y68083336D01*
D10*
X-7904762Y68464288D02*
X-8095238Y69130952D01*
D10*
X-7809524Y68083336D02*
X-7904762Y68464288D01*
D10*
X-7809524Y67892856D02*
X-7809524Y68083336D01*
D10*
X-7904762Y67797616D02*
X-7809524Y67892856D01*
D10*
X-8190476Y67797616D02*
X-7904762Y67797616D01*
D10*
X-8380953Y67988096D02*
X-8190476Y67797616D01*
D10*
X-8476191Y68178568D02*
X-8380953Y67988096D01*
D10*
X-8000000Y68464288D02*
X-8190476Y69130952D01*
D10*
X-7904762Y68083336D02*
X-8000000Y68464288D01*
D10*
X-7904762Y67892856D02*
X-7904762Y68083336D01*
D10*
X-8000000Y67797616D02*
X-7904762Y67892856D01*
D10*
X-8761905Y67797616D02*
X-9333333Y69797616D01*
D10*
X-8857143Y67797616D02*
X-9428572Y69797616D01*
D10*
X-10000000Y68940480D02*
X-10095238Y69035712D01*
D10*
X-10095238Y68845240D02*
X-10000000Y68940480D01*
D10*
X-10190476Y68940480D02*
X-10095238Y68845240D01*
D10*
X-10190476Y69035712D02*
X-10190476Y68940480D01*
D10*
X-10095238Y69130952D02*
X-10190476Y69035712D01*
D10*
X-10000000Y69130952D02*
X-10095238Y69130952D01*
D10*
X-9809524Y69035712D02*
X-10000000Y69130952D01*
D10*
X-9428572Y68654760D02*
X-9809524Y69035712D01*
D10*
X-9238095Y68559520D02*
X-9428572Y68654760D01*
D10*
X-9047619Y68559520D02*
X-9238095Y68559520D01*
D10*
X-9428572Y68464288D02*
X-9238095Y68559520D01*
D10*
X-9619048Y67892856D02*
X-9428572Y68464288D01*
D10*
X-9714286Y67797616D02*
X-9619048Y67892856D01*
D10*
X-9333333Y68464288D02*
X-9238095Y68559520D01*
D10*
X-9523810Y67892856D02*
X-9333333Y68464288D01*
D10*
X-9619048Y67797616D02*
X-9523810Y67892856D01*
D10*
X-9809524Y67797616D02*
X-9619048Y67797616D01*
D10*
X-10000000Y67892856D02*
X-9809524Y67797616D01*
D10*
X-10190476Y68178568D02*
X-10000000Y67892856D01*
D10*
X-9428572Y69797616D02*
X-9047619Y69797616D01*
D10*
X-11809524Y68464288D02*
X-12000000Y69130952D01*
D10*
X-11714286Y68083336D02*
X-11809524Y68464288D01*
D10*
X-11714286Y67892856D02*
X-11714286Y68083336D01*
D10*
X-11809524Y67797616D02*
X-11714286Y67892856D01*
D10*
X-12095238Y67797616D02*
X-11809524Y67797616D01*
D10*
X-12285714Y67988096D02*
X-12095238Y67797616D01*
D10*
X-12380952Y68178568D02*
X-12285714Y67988096D01*
D10*
X-11904762Y68464288D02*
X-12095238Y69130952D01*
D10*
X-11809524Y68083336D02*
X-11904762Y68464288D01*
D10*
X-11809524Y67892856D02*
X-11809524Y68083336D01*
D10*
X-11904762Y67797616D02*
X-11809524Y67892856D01*
D10*
X-11809524Y68750000D02*
X-11809524Y68464288D01*
D10*
X-11714286Y69035712D02*
X-11809524Y68750000D01*
D10*
X-11523810Y69130952D02*
X-11714286Y69035712D01*
D10*
X-11333334Y69130952D02*
X-11523810Y69130952D01*
D10*
X-11047619Y69035712D02*
X-11333334Y69130952D01*
D10*
X-10857143Y68750000D02*
X-11047619Y69035712D01*
D10*
X-10761905Y68464288D02*
X-10857143Y68750000D01*
D10*
X-10761905Y68178568D02*
X-10761905Y68464288D01*
D10*
X-10857143Y67988096D02*
X-10761905Y68178568D01*
D10*
X-10952381Y67892856D02*
X-10857143Y67988096D01*
D10*
X-11142857Y67797616D02*
X-10952381Y67892856D01*
D10*
X-11333334Y67797616D02*
X-11142857Y67797616D01*
D10*
X-11523810Y67892856D02*
X-11333334Y67797616D01*
D10*
X-11714286Y68178568D02*
X-11523810Y67892856D01*
D10*
X-11809524Y68464288D02*
X-11714286Y68178568D01*
D10*
X-11142857Y69035712D02*
X-11333334Y69130952D01*
D10*
X-10952381Y68750000D02*
X-11142857Y69035712D01*
D10*
X-10857143Y68464288D02*
X-10952381Y68750000D01*
D10*
X-10857143Y68083336D02*
X-10857143Y68464288D01*
D10*
X-10952381Y67892856D02*
X-10857143Y68083336D01*
D10*
X-13809524Y68845240D02*
X-13809524Y68940480D01*
D10*
X-13904762Y68845240D02*
X-13809524Y68845240D01*
D10*
X-13904762Y68940480D02*
X-13904762Y68845240D01*
D10*
X-13809524Y69035712D02*
X-13904762Y68940480D01*
D10*
X-13523810Y69130952D02*
X-13809524Y69035712D01*
D10*
X-13238096Y69130952D02*
X-13523810Y69130952D01*
D10*
X-12952381Y69035712D02*
X-13238096Y69130952D01*
D10*
X-12857143Y68940480D02*
X-12952381Y69035712D01*
D10*
X-12857143Y68750000D02*
X-12857143Y68940480D01*
D10*
X-12952381Y68654760D02*
X-12857143Y68750000D01*
D10*
X-13619048Y68273808D02*
X-12952381Y68654760D01*
D10*
X-13714286Y68178568D02*
X-13619048Y68273808D01*
D10*
X-12952381Y68750000D02*
X-12857143Y68845240D01*
D10*
X-13619048Y68369048D02*
X-12952381Y68750000D01*
D10*
X-13714286Y68273808D02*
X-13619048Y68369048D01*
D10*
X-13714286Y67988096D02*
X-13714286Y68273808D01*
D10*
X-13619048Y67892856D02*
X-13714286Y67988096D01*
D10*
X-13333334Y67797616D02*
X-13619048Y67892856D01*
D10*
X-13047619Y67797616D02*
X-13333334Y67797616D01*
D10*
X-12761905Y67892856D02*
X-13047619Y67797616D01*
D10*
X-12666667Y67988096D02*
X-12761905Y67892856D01*
D10*
X-12666667Y68083336D02*
X-12666667Y67988096D01*
D10*
X-12761905Y68083336D02*
X-12666667Y68083336D01*
D10*
X-12761905Y67988096D02*
X-12761905Y68083336D01*
D10*
X-15142857Y67797616D02*
X-15714286Y69797616D01*
D10*
X-15238095Y67797616D02*
X-15809524Y69797616D01*
D10*
X-15428572Y68559520D02*
X-17047620Y69797616D01*
D10*
X-16476190Y67797616D02*
X-16095238Y68940480D01*
D10*
X-16380952Y67797616D02*
X-16000000Y68940480D01*
D10*
X-16095238Y69797616D02*
X-15428572Y69797616D01*
D10*
X-17238096Y69797616D02*
X-16666667Y69797616D01*
D10*
X-15523810Y67797616D02*
X-14857143Y67797616D01*
D10*
X-16666667Y67797616D02*
X-16095238Y67797616D01*
D10*
X-17428572Y67892856D02*
X-17523810Y67988096D01*
D10*
X-17523810Y67797616D02*
X-17428572Y67892856D01*
D10*
X-17619048Y67892856D02*
X-17523810Y67797616D01*
D10*
X-17523810Y67988096D02*
X-17619048Y67892856D01*
D10*
X-10761905Y66371428D02*
X-10666667Y66466668D01*
D10*
X-10666667Y66276192D02*
X-10761905Y66371428D01*
D10*
X-10571428Y66371428D02*
X-10666667Y66276192D01*
D10*
X-10571428Y66466668D02*
X-10571428Y66371428D01*
D10*
X-10666667Y66657144D02*
X-10571428Y66466668D01*
D10*
X-10761905Y66752380D02*
X-10666667Y66657144D01*
D10*
X-11047619Y66847620D02*
X-10761905Y66752380D01*
D10*
X-11333334Y66847620D02*
X-11047619Y66847620D01*
D10*
X-11619048Y66752380D02*
X-11333334Y66847620D01*
D10*
X-11714286Y66561904D02*
X-11619048Y66752380D01*
D10*
X-11714286Y66371428D02*
X-11714286Y66561904D01*
D10*
X-11619048Y66180952D02*
X-11714286Y66371428D01*
D10*
X-11428572Y65990476D02*
X-11619048Y66180952D01*
D10*
X-11142857Y65800000D02*
X-11428572Y65990476D01*
D10*
X-10761905Y65609524D02*
X-11142857Y65800000D01*
D10*
X-10476190Y65419048D02*
X-10761905Y65609524D01*
D10*
X-10285714Y65228572D02*
X-10476190Y65419048D01*
D10*
X-10095238Y64847620D02*
X-10285714Y65228572D01*
D10*
X-11523810Y66752380D02*
X-11333334Y66847620D01*
D10*
X-11619048Y66561904D02*
X-11523810Y66752380D01*
D10*
X-11619048Y66371428D02*
X-11619048Y66561904D01*
D10*
X-11523810Y66180952D02*
X-11619048Y66371428D01*
D10*
X-11333334Y65990476D02*
X-11523810Y66180952D01*
D10*
X-10761905Y65609524D02*
X-11333334Y65990476D01*
D10*
X-10285714Y65133332D02*
X-10190476Y65038096D01*
D10*
X-10476190Y65133332D02*
X-10285714Y65133332D01*
D10*
X-10952381Y64942856D02*
X-10476190Y65133332D01*
D10*
X-11238096Y64942856D02*
X-10952381Y64942856D01*
D10*
X-11428572Y65038096D02*
X-11238096Y64942856D01*
D10*
X-11523810Y65228572D02*
X-11428572Y65038096D01*
D10*
X-10952381Y64847620D02*
X-10476190Y65133332D01*
D10*
X-11238096Y64847620D02*
X-10952381Y64847620D01*
D10*
X-11428572Y64942856D02*
X-11238096Y64847620D01*
D10*
X-11523810Y65228572D02*
X-11428572Y64942856D01*
D10*
X-12857143Y66752380D02*
X-13142857Y66847620D01*
D10*
X-12666667Y66561904D02*
X-12857143Y66752380D01*
D10*
X-12476190Y66276192D02*
X-12666667Y66561904D01*
D10*
X-12380952Y65990476D02*
X-12476190Y66276192D01*
D10*
X-12285714Y65609524D02*
X-12380952Y65990476D01*
D10*
X-12285714Y65323808D02*
X-12285714Y65609524D01*
D10*
X-12380952Y65038096D02*
X-12285714Y65323808D01*
D10*
X-12476190Y64942856D02*
X-12380952Y65038096D01*
D10*
X-12666667Y64847620D02*
X-12476190Y64942856D01*
D10*
X-12857143Y64847620D02*
X-12666667Y64847620D01*
D10*
X-13142857Y64942856D02*
X-12857143Y64847620D01*
D10*
X-13333334Y65133332D02*
X-13142857Y64942856D01*
D10*
X-13523810Y65419048D02*
X-13333334Y65133332D01*
D10*
X-13619048Y65704760D02*
X-13523810Y65419048D01*
D10*
X-13714286Y66085716D02*
X-13619048Y65704760D01*
D10*
X-13714286Y66371428D02*
X-13714286Y66085716D01*
D10*
X-13619048Y66657144D02*
X-13714286Y66371428D01*
D10*
X-13523810Y66752380D02*
X-13619048Y66657144D01*
D10*
X-13333334Y66847620D02*
X-13523810Y66752380D01*
D10*
X-13142857Y66847620D02*
X-13333334Y66847620D01*
D10*
X-12952381Y66752380D02*
X-13142857Y66847620D01*
D10*
X-12761905Y66561904D02*
X-12952381Y66752380D01*
D10*
X-12571428Y66276192D02*
X-12761905Y66561904D01*
D10*
X-12476190Y65990476D02*
X-12571428Y66276192D01*
D10*
X-12380952Y65609524D02*
X-12476190Y65990476D01*
D10*
X-12380952Y65323808D02*
X-12380952Y65609524D01*
D10*
X-12476190Y65038096D02*
X-12380952Y65323808D01*
D10*
X-12666667Y64847620D02*
X-12476190Y65038096D01*
D10*
X-13047619Y64942856D02*
X-12857143Y64847620D01*
D10*
X-13238096Y65133332D02*
X-13047619Y64942856D01*
D10*
X-13428572Y65419048D02*
X-13238096Y65133332D01*
D10*
X-13523810Y65704760D02*
X-13428572Y65419048D01*
D10*
X-13619048Y66085716D02*
X-13523810Y65704760D01*
D10*
X-13619048Y66371428D02*
X-13619048Y66085716D01*
D10*
X-13523810Y66657144D02*
X-13619048Y66371428D01*
D10*
X-13333334Y66847620D02*
X-13523810Y66657144D01*
D10*
X-14761905Y66371428D02*
X-14666667Y66466668D01*
D10*
X-14666667Y66276192D02*
X-14761905Y66371428D01*
D10*
X-14571428Y66371428D02*
X-14666667Y66276192D01*
D10*
X-14571428Y66466668D02*
X-14571428Y66371428D01*
D10*
X-14666667Y66657144D02*
X-14571428Y66466668D01*
D10*
X-14761905Y66752380D02*
X-14666667Y66657144D01*
D10*
X-15047619Y66847620D02*
X-14761905Y66752380D01*
D10*
X-15333334Y66847620D02*
X-15047619Y66847620D01*
D10*
X-15619048Y66752380D02*
X-15333334Y66847620D01*
D10*
X-15714286Y66561904D02*
X-15619048Y66752380D01*
D10*
X-15714286Y66371428D02*
X-15714286Y66561904D01*
D10*
X-15619048Y66180952D02*
X-15714286Y66371428D01*
D10*
X-15428572Y65990476D02*
X-15619048Y66180952D01*
D10*
X-15142857Y65800000D02*
X-15428572Y65990476D01*
D10*
X-14761905Y65609524D02*
X-15142857Y65800000D01*
D10*
X-14476190Y65419048D02*
X-14761905Y65609524D01*
D10*
X-14285714Y65228572D02*
X-14476190Y65419048D01*
D10*
X-14095238Y64847620D02*
X-14285714Y65228572D01*
D10*
X-15523810Y66752380D02*
X-15333334Y66847620D01*
D10*
X-15619048Y66561904D02*
X-15523810Y66752380D01*
D10*
X-15619048Y66371428D02*
X-15619048Y66561904D01*
D10*
X-15523810Y66180952D02*
X-15619048Y66371428D01*
D10*
X-15333334Y65990476D02*
X-15523810Y66180952D01*
D10*
X-14761905Y65609524D02*
X-15333334Y65990476D01*
D10*
X-14285714Y65133332D02*
X-14190476Y65038096D01*
D10*
X-14476190Y65133332D02*
X-14285714Y65133332D01*
D10*
X-14952381Y64942856D02*
X-14476190Y65133332D01*
D10*
X-15238095Y64942856D02*
X-14952381Y64942856D01*
D10*
X-15428572Y65038096D02*
X-15238095Y64942856D01*
D10*
X-15523810Y65228572D02*
X-15428572Y65038096D01*
D10*
X-14952381Y64847620D02*
X-14476190Y65133332D01*
D10*
X-15238095Y64847620D02*
X-14952381Y64847620D01*
D10*
X-15428572Y64942856D02*
X-15238095Y64847620D01*
D10*
X-15523810Y65228572D02*
X-15428572Y64942856D01*
D10*
X-16761905Y66371428D02*
X-16666667Y66466668D01*
D10*
X-16666667Y66276192D02*
X-16761905Y66371428D01*
D10*
X-16571429Y66371428D02*
X-16666667Y66276192D01*
D10*
X-16571429Y66466668D02*
X-16571429Y66371428D01*
D10*
X-16666667Y66657144D02*
X-16571429Y66466668D01*
D10*
X-16761905Y66752380D02*
X-16666667Y66657144D01*
D10*
X-17047620Y66847620D02*
X-16761905Y66752380D01*
D10*
X-17333334Y66847620D02*
X-17047620Y66847620D01*
D10*
X-17619048Y66752380D02*
X-17333334Y66847620D01*
D10*
X-17714286Y66561904D02*
X-17619048Y66752380D01*
D10*
X-17714286Y66371428D02*
X-17714286Y66561904D01*
D10*
X-17619048Y66180952D02*
X-17714286Y66371428D01*
D10*
X-17428572Y65990476D02*
X-17619048Y66180952D01*
D10*
X-17142858Y65800000D02*
X-17428572Y65990476D01*
D10*
X-16761905Y65609524D02*
X-17142858Y65800000D01*
D10*
X-16476190Y65419048D02*
X-16761905Y65609524D01*
D10*
X-16285714Y65228572D02*
X-16476190Y65419048D01*
D10*
X-16095238Y64847620D02*
X-16285714Y65228572D01*
D10*
X-17523810Y66752380D02*
X-17333334Y66847620D01*
D10*
X-17619048Y66561904D02*
X-17523810Y66752380D01*
D10*
X-17619048Y66371428D02*
X-17619048Y66561904D01*
D10*
X-17523810Y66180952D02*
X-17619048Y66371428D01*
D10*
X-17333334Y65990476D02*
X-17523810Y66180952D01*
D10*
X-16761905Y65609524D02*
X-17333334Y65990476D01*
D10*
X-16285714Y65133332D02*
X-16190476Y65038096D01*
D10*
X-16476190Y65133332D02*
X-16285714Y65133332D01*
D10*
X-16952380Y64942856D02*
X-16476190Y65133332D01*
D10*
X-17238096Y64942856D02*
X-16952380Y64942856D01*
D10*
X-17428572Y65038096D02*
X-17238096Y64942856D01*
D10*
X-17523810Y65228572D02*
X-17428572Y65038096D01*
D10*
X-16952380Y64847620D02*
X-16476190Y65133332D01*
D10*
X-17238096Y64847620D02*
X-16952380Y64847620D01*
D10*
X-17428572Y64942856D02*
X-17238096Y64847620D01*
D10*
X-17523810Y65228572D02*
X-17428572Y64942856D01*
D11*
X13302381Y84723808D02*
X13016667Y85723808D01*
D11*
X13254762Y84723808D02*
X12969048Y85723808D01*
D11*
X12730952Y85723808D02*
X13159524Y85723808D01*
D11*
X12588095Y85676192D02*
X12730952Y85723808D01*
D11*
X12540476Y85628568D02*
X12588095Y85676192D01*
D11*
X12492857Y85485712D02*
X12540476Y85628568D01*
D11*
X12492857Y85295240D02*
X12492857Y85485712D01*
D11*
X12540476Y85104760D02*
X12492857Y85295240D01*
D11*
X12635714Y84914288D02*
X12540476Y85104760D01*
D11*
X12730952Y84819048D02*
X12635714Y84914288D01*
D11*
X12826190Y84771432D02*
X12730952Y84819048D01*
D11*
X13016667Y84723808D02*
X12826190Y84771432D01*
D11*
X13445238Y84723808D02*
X13016667Y84723808D01*
D11*
X12635714Y85676192D02*
X12730952Y85723808D01*
D11*
X12588095Y85628568D02*
X12635714Y85676192D01*
D11*
X12540476Y85485712D02*
X12588095Y85628568D01*
D11*
X12540476Y85295240D02*
X12540476Y85485712D01*
D11*
X12588095Y85104760D02*
X12540476Y85295240D01*
D11*
X12683333Y84914288D02*
X12588095Y85104760D01*
D11*
X12778571Y84819048D02*
X12683333Y84914288D01*
D11*
X12873810Y84771432D02*
X12778571Y84819048D01*
D11*
X13016667Y84723808D02*
X12873810Y84771432D01*
D11*
X11969048Y85485712D02*
X12016667Y85533336D01*
D11*
X12016667Y85438096D02*
X11969048Y85485712D01*
D11*
X12064286Y85485712D02*
X12016667Y85438096D01*
D11*
X12064286Y85533336D02*
X12064286Y85485712D01*
D11*
X12016667Y85628568D02*
X12064286Y85533336D01*
D11*
X11969048Y85676192D02*
X12016667Y85628568D01*
D11*
X11826190Y85723808D02*
X11969048Y85676192D01*
D11*
X11683333Y85723808D02*
X11826190Y85723808D01*
D11*
X11540476Y85676192D02*
X11683333Y85723808D01*
D11*
X11492857Y85580952D02*
X11540476Y85676192D01*
D11*
X11492857Y85485712D02*
X11492857Y85580952D01*
D11*
X11540476Y85390480D02*
X11492857Y85485712D01*
D11*
X11683333Y85295240D02*
X11540476Y85390480D01*
D11*
X11826190Y85247616D02*
X11683333Y85295240D01*
D11*
X11588095Y85676192D02*
X11683333Y85723808D01*
D11*
X11540476Y85580952D02*
X11588095Y85676192D01*
D11*
X11540476Y85485712D02*
X11540476Y85580952D01*
D11*
X11588095Y85390480D02*
X11540476Y85485712D01*
D11*
X11683333Y85295240D02*
X11588095Y85390480D01*
D11*
X11826190Y85247616D02*
X11921429Y85247616D01*
D11*
X11683333Y85200000D02*
X11826190Y85247616D01*
D11*
X11635714Y85152384D02*
X11683333Y85200000D01*
D11*
X11588095Y85057144D02*
X11635714Y85152384D01*
D11*
X11588095Y84914288D02*
X11588095Y85057144D01*
D11*
X11635714Y84819048D02*
X11588095Y84914288D01*
D11*
X11683333Y84771432D02*
X11635714Y84819048D01*
D11*
X11826190Y84723808D02*
X11683333Y84771432D01*
D11*
X12016667Y84723808D02*
X11826190Y84723808D01*
D11*
X12159524Y84771432D02*
X12016667Y84723808D01*
D11*
X12207143Y84819048D02*
X12159524Y84771432D01*
D11*
X12254762Y84914288D02*
X12207143Y84819048D01*
D11*
X12254762Y84961904D02*
X12254762Y84914288D01*
D11*
X12207143Y85009520D02*
X12254762Y84961904D01*
D11*
X12159524Y84961904D02*
X12207143Y85009520D01*
D11*
X12207143Y84914288D02*
X12159524Y84961904D01*
D11*
X11730952Y85200000D02*
X11826190Y85247616D01*
D11*
X11683333Y85152384D02*
X11730952Y85200000D01*
D11*
X11635714Y85057144D02*
X11683333Y85152384D01*
D11*
X11635714Y84914288D02*
X11635714Y85057144D01*
D11*
X11683333Y84819048D02*
X11635714Y84914288D01*
D11*
X11730952Y84771432D02*
X11683333Y84819048D01*
D11*
X11826190Y84723808D02*
X11730952Y84771432D01*
D11*
X10202381Y85023808D02*
X9916667Y86023808D01*
D11*
X10154762Y85023808D02*
X9869048Y86023808D01*
D11*
X9630952Y86023808D02*
X10059524Y86023808D01*
D11*
X9488095Y85976192D02*
X9630952Y86023808D01*
D11*
X9440476Y85928568D02*
X9488095Y85976192D01*
D11*
X9392857Y85785712D02*
X9440476Y85928568D01*
D11*
X9392857Y85595240D02*
X9392857Y85785712D01*
D11*
X9440476Y85404760D02*
X9392857Y85595240D01*
D11*
X9535714Y85214288D02*
X9440476Y85404760D01*
D11*
X9630952Y85119048D02*
X9535714Y85214288D01*
D11*
X9726190Y85071432D02*
X9630952Y85119048D01*
D11*
X9916667Y85023808D02*
X9726190Y85071432D01*
D11*
X10345238Y85023808D02*
X9916667Y85023808D01*
D11*
X9535714Y85976192D02*
X9630952Y86023808D01*
D11*
X9488095Y85928568D02*
X9535714Y85976192D01*
D11*
X9440476Y85785712D02*
X9488095Y85928568D01*
D11*
X9440476Y85595240D02*
X9440476Y85785712D01*
D11*
X9488095Y85404760D02*
X9440476Y85595240D01*
D11*
X9583333Y85214288D02*
X9488095Y85404760D01*
D11*
X9678571Y85119048D02*
X9583333Y85214288D01*
D11*
X9773810Y85071432D02*
X9678571Y85119048D01*
D11*
X9916667Y85023808D02*
X9773810Y85071432D01*
D11*
X8773810Y85023808D02*
X8488095Y85976192D01*
D11*
X8726190Y85023808D02*
X8440476Y86023808D01*
D11*
X9154762Y85309520D02*
X8440476Y86023808D01*
D11*
X8392857Y85309520D02*
X9154762Y85309520D01*
D11*
X7725000Y86375000D02*
X7725000Y84625000D01*
D11*
X4275000Y84625000D02*
X4275000Y87375000D01*
D11*
X11875000Y89475000D02*
X13625000Y89475000D01*
D11*
X13625000Y86025000D02*
X10875000Y86025000D01*
G75*
M02*
