M48
FMAT,2
METRIC,TZ
T6C0.350
T3C0.650
T5C0.991
T2C1.000
T4C2.375
T1C3.200
%
G90
G05
M71
T6
X20.000Y66.500
X35.250Y74.500
X29.250Y81.250
X26.750Y55.600
X39.000Y91.500
X27.750Y72.250
X33.250Y71.000
X3.350Y64.200
X52.000Y63.750
X47.000Y63.000
X24.750Y74.000
X30.000Y94.750
X4.250Y81.500
X3.250Y58.750
X5.300Y62.925
X3.500Y82.250
X46.750Y75.000
X3.500Y85.250
X2.000Y80.000
X54.000Y63.750
X32.500Y53.750
X34.750Y84.750
X39.400Y92.850
X2.750Y80.750
X34.600Y92.850
X2.000Y84.500
X37.000Y56.000
X47.500Y55.250
X4.250Y83.000
X20.500Y80.500
X41.000Y69.000
X46.000Y68.800
X16.250Y76.000
X13.500Y63.000
X42.000Y69.000
X45.750Y61.750
X2.750Y85.250
X30.000Y96.250
X2.750Y86.000
X39.750Y76.000
X24.750Y70.000
X13.500Y65.000
X48.750Y55.500
X2.000Y77.750
X3.500Y81.500
X38.000Y68.250
X44.000Y99.250
X2.750Y82.250
X29.250Y80.500
X5.250Y84.250
X24.400Y60.750
X4.250Y82.250
X4.250Y77.750
X44.000Y97.750
X30.000Y79.750
X37.750Y83.250
X47.000Y61.750
X45.750Y64.250
X45.934Y66.999
X30.000Y80.500
X44.000Y95.500
X51.250Y68.000
X24.750Y69.000
X41.500Y58.708
X2.000Y86.000
X4.010Y60.536
X37.000Y84.750
X1.500Y76.000
X34.014Y53.750
X2.750Y83.750
X40.500Y79.250
X43.750Y75.000
X2.250Y76.000
X4.250Y79.250
X4.250Y80.750
X3.500Y83.750
X28.500Y80.500
X29.500Y75.500
X34.000Y60.250
X30.000Y95.500
X33.250Y56.250
X46.800Y68.800
X4.000Y70.000
X35.500Y83.250
X30.000Y97.750
X37.500Y79.250
X2.750Y77.750
X30.000Y94.000
X28.500Y79.750
X35.250Y75.250
X26.750Y53.725
X3.500Y78.500
X4.918Y63.730
X30.000Y81.250
X4.250Y85.250
X22.400Y56.500
X2.750Y79.250
X20.000Y63.250
X50.500Y66.500
X44.000Y98.500
X3.500Y77.750
X24.500Y82.750
X42.000Y65.750
X2.000Y83.000
X3.500Y84.500
X47.000Y64.250
X44.500Y63.000
X2.000Y83.750
X27.750Y74.750
X33.500Y89.000
X43.000Y96.410
X45.500Y55.500
X29.250Y79.750
X2.750Y81.500
X2.000Y79.250
X4.250Y83.750
X26.000Y54.325
X24.750Y73.000
X38.000Y65.750
X23.250Y99.000
X4.750Y70.000
X39.500Y60.000
X26.500Y94.000
X2.750Y78.500
X37.000Y84.000
X24.750Y72.000
X2.000Y81.500
X32.500Y57.750
X26.500Y91.500
X32.000Y97.160
X44.500Y64.250
X27.250Y66.000
X34.500Y91.000
X31.250Y71.000
X4.000Y69.250
X2.000Y82.250
X36.250Y89.500
X49.000Y65.000
X4.000Y68.500
X2.750Y80.000
X3.250Y69.250
X24.750Y71.000
X38.000Y57.000
X47.500Y51.000
X2.250Y75.250
X12.000Y71.500
X2.750Y83.000
X0.250Y96.250
X3.950Y63.675
X39.750Y74.500
X1.500Y75.250
X3.250Y68.500
X12.343Y60.580
X44.000Y94.750
X42.000Y97.160
X49.000Y69.000
X31.000Y96.410
X32.000Y96.410
X44.000Y94.000
X37.000Y81.750
X4.250Y78.500
X39.000Y68.250
X34.014Y56.264
X39.750Y75.250
X42.000Y96.410
X43.000Y97.160
X43.000Y82.500
X3.500Y86.000
X4.250Y84.500
X31.000Y97.160
X33.264Y53.764
X25.000Y88.500
X44.000Y97.000
X44.000Y96.250
X18.000Y82.250
X34.000Y82.000
X41.000Y81.750
X41.000Y65.750
X25.950Y55.600
X44.500Y61.750
X52.000Y66.500
X41.500Y73.000
X28.500Y81.250
X30.000Y98.500
X30.000Y97.000
X3.500Y80.000
X2.000Y78.500
X34.750Y85.500
X35.250Y76.000
X10.023Y62.526
X3.350Y65.250
X2.750Y84.500
X34.750Y84.000
X3.500Y83.000
X39.500Y61.500
X13.750Y74.750
X2.250Y76.750
X46.734Y67.016
X4.250Y80.000
X40.500Y80.000
X2.000Y80.750
X45.750Y63.000
X37.500Y80.000
X30.000Y99.250
X3.925Y64.850
X3.250Y70.000
X0.843Y60.580
X39.000Y65.750
X24.750Y68.000
X1.500Y76.750
X3.500Y80.750
X45.500Y87.500
X2.000Y85.250
X3.500Y79.250
X37.000Y85.500
X4.750Y69.250
X6.593Y61.580
T3
X39.890Y95.320
X34.110Y95.320
T5
X27.710Y64.984
X27.710Y67.016
X32.790Y66.000
T2
X4.250Y89.055
X9.790Y89.055
X0.095Y91.895
X5.635Y91.895
X-1.290Y89.055
X8.405Y91.895
X2.865Y91.895
X7.020Y89.055
X1.480Y89.055
T4
X32.790Y63.460
X29.615Y63.460
X32.790Y68.540
X29.615Y68.540
T1
X-18.500Y96.000
X57.250Y96.000
X57.250Y53.000
X-18.500Y53.000
X16.750Y90.475
X-8.250Y90.475
M30
